<?xml version="1.0" encoding="utf-8"?>
<!-- Generator: Adobe Illustrator 24.0.0, SVG Export Plug-In . SVG Version: 6.00 Build 0)  -->
<svg version="1.1" id="a3f4169a-5e5e-4255-abcc-1b8759c50498"
	 xmlns="http://www.w3.org/2000/svg" xmlns:xlink="http://www.w3.org/1999/xlink" x="0px" y="0px" viewBox="0 0 883.9 658.1"
	 style="enable-background:new 0 0 883.9 658.1;" xml:space="preserve">
<style type="text/css">
	.st0{fill:#3F3D56;fill-opacity:0;}
	.st1{fill:#44D62C;}
	.st2{fill:#3B3B49;}
	.st3{fill:#29293A;}
	.st4{fill:#8985A8;}
	.st5{opacity:0.1;enable-background:new    ;}
	.st6{fill:#F2F2F2;}
	.st7{fill:#3F3D56;}
	.st8{fill:#FFB8B8;}
</style>
<title>hacker_mind</title>
<rect x="2.5" y="0.1" class="st0" width="663.3" height="420"/>
<rect x="2.5" y="17.1" class="st1" width="9.1" height="12"/>
<rect x="32" y="14.1" class="st1" width="9.1" height="12"/>
<rect x="47.9" y="14.1" class="st1" width="9.1" height="12"/>
<rect x="47.9" y="51.1" class="st1" width="9.1" height="12"/>
<rect x="64.9" y="33.1" class="st1" width="9.1" height="12"/>
<rect x="64.9" y="53.1" class="st1" width="9.1" height="12"/>
<rect x="47.9" y="91.1" class="st1" width="9.1" height="12"/>
<rect x="64.9" y="112.1" class="st1" width="9.1" height="12"/>
<rect x="47.9" y="187.1" class="st1" width="9.1" height="12"/>
<rect x="32" y="112.1" class="st1" width="9.1" height="12"/>
<rect x="2.5" y="37.1" class="st1" width="9.1" height="12"/>
<rect x="2.5" y="230.1" class="st1" width="9.1" height="12"/>
<rect x="2.5" y="270.1" class="st1" width="9.1" height="12"/>
<rect x="2.5" y="291.1" class="st1" width="9.1" height="12"/>
<rect x="-0.9" y="59.1" class="st1" width="12.5" height="2"/>
<rect x="45.6" y="77.1" class="st1" width="12.5" height="2"/>
<rect x="-0.9" y="157.1" class="st1" width="12.5" height="2"/>
<rect x="-0.9" y="174.1" class="st1" width="12.5" height="2"/>
<rect x="45.6" y="273.1" class="st1" width="12.5" height="2"/>
<rect x="32" y="310.1" class="st1" width="12.5" height="2"/>
<polygon class="st1" points="2.5,73.1 2.5,76.1 5.9,76.1 5.9,82.1 2.5,82.1 2.5,85.1 11.6,85.1 11.6,73.1 "/>
<polygon class="st1" points="32,51.1 32,54.1 35.4,54.1 35.4,60.1 32,60.1 32,63.1 41.1,63.1 41.1,51.1 "/>
<polygon class="st1" points="64.9,71.1 64.9,74.1 69.5,74.1 69.5,80.1 64.9,80.1 64.9,83.1 74,83.1 74,71.1 "/>
<polygon class="st1" points="64.9,132.1 64.9,135.1 69.5,135.1 69.5,141.1 64.9,141.1 64.9,144.1 74,144.1 74,132.1 "/>
<polygon class="st1" points="64.9,152.1 64.9,155.1 69.5,155.1 69.5,161.1 64.9,161.1 64.9,164.1 74,164.1 74,152.1 "/>
<polygon class="st1" points="64.9,90.1 64.9,93.1 69.5,93.1 69.5,99.1 64.9,99.1 64.9,102.1 74,102.1 74,90.1 "/>
<polygon class="st1" points="47.9,33.1 47.9,36.1 51.3,36.1 51.3,42.1 47.9,42.1 47.9,45.1 57,45.1 57,33.1 "/>
<rect x="47.9" y="132.1" class="st1" width="9.1" height="12"/>
<rect x="47.9" y="169.1" class="st1" width="9.1" height="12"/>
<polygon class="st1" points="47.9,150.1 47.9,153.1 51.3,153.1 51.3,159.1 47.9,159.1 47.9,162.1 57,162.1 57,150.1 "/>
<polygon class="st1" points="32,71.1 32,74.1 35.4,74.1 35.4,80.1 32,80.1 32,83.1 41.1,83.1 41.1,71.1 "/>
<polygon class="st1" points="32,92.1 32,95.1 35.4,95.1 35.4,101.1 32,101.1 32,104.1 41.1,104.1 41.1,92.1 "/>
<rect x="32" y="152.1" class="st1" width="9.1" height="12"/>
<polygon class="st1" points="32,132.1 32,135.1 35.4,135.1 35.4,141.1 32,141.1 32,144.1 41.1,144.1 41.1,132.1 "/>
<rect x="32" y="192.1" class="st1" width="9.1" height="12"/>
<polygon class="st1" points="32,172.1 32,175.1 35.4,175.1 35.4,181.1 32,181.1 32,184.1 41.1,184.1 41.1,172.1 "/>
<rect x="32" y="232.1" class="st1" width="9.1" height="12"/>
<rect x="47.9" y="229.1" class="st1" width="9.1" height="12"/>
<polygon class="st1" points="32,212.1 32,215.1 35.4,215.1 35.4,221.1 32,221.1 32,224.1 41.1,224.1 41.1,212.1 "/>
<polygon class="st1" points="64.9,212.1 64.9,215.1 69.5,215.1 69.5,221.1 64.9,221.1 64.9,224.1 74,224.1 74,212.1 "/>
<rect x="154.7" y="33.1" class="st1" width="9.1" height="12"/>
<rect x="154.7" y="53.1" class="st1" width="9.1" height="12"/>
<rect x="154.7" y="112.1" class="st1" width="9.1" height="12"/>
<polygon class="st1" points="154.7,71.1 154.7,74.1 158.1,74.1 158.1,80.1 154.7,80.1 154.7,83.1 163.8,83.1 163.8,71.1 "/>
<polygon class="st1" points="154.7,132.1 154.7,135.1 158.1,135.1 158.1,141.1 154.7,141.1 154.7,144.1 163.8,144.1 163.8,132.1 "/>
<polygon class="st1" points="154.7,152.1 154.7,155.1 158.1,155.1 158.1,161.1 154.7,161.1 154.7,164.1 163.8,164.1 163.8,152.1 "/>
<polygon class="st1" points="154.7,90.1 154.7,93.1 158.1,93.1 158.1,99.1 154.7,99.1 154.7,102.1 163.8,102.1 163.8,90.1 "/>
<polygon class="st1" points="154.7,212.1 154.7,215.1 158.1,215.1 158.1,221.1 154.7,221.1 154.7,224.1 163.8,224.1 163.8,212.1 "/>
<rect x="32" y="272.1" class="st1" width="9.1" height="12"/>
<rect x="47.9" y="249.1" class="st1" width="9.1" height="12"/>
<rect x="32" y="325.1" class="st1" width="9.1" height="12"/>
<rect x="47.9" y="287.1" class="st1" width="9.1" height="12"/>
<polygon class="st1" points="32,252.1 32,255.1 35.4,255.1 35.4,261.1 32,261.1 32,264.1 41.1,264.1 41.1,252.1 "/>
<polygon class="st1" points="32,346.1 32,349.1 35.4,349.1 35.4,355.1 32,355.1 32,358.1 41.1,358.1 41.1,346.1 "/>
<rect x="128.5" y="14.1" class="st1" width="9.1" height="12"/>
<rect x="128.5" y="112.1" class="st1" width="9.1" height="12"/>
<rect x="128.5" y="310.1" class="st1" width="12.5" height="2"/>
<polygon class="st1" points="128.5,51.1 128.5,54.1 132,54.1 132,60.1 128.5,60.1 128.5,63.1 137.6,63.1 137.6,51.1 "/>
<polygon class="st1" points="128.5,71.1 128.5,74.1 132,74.1 132,80.1 128.5,80.1 128.5,83.1 137.6,83.1 137.6,71.1 "/>
<polygon class="st1" points="128.5,92.1 128.5,95.1 132,95.1 132,101.1 128.5,101.1 128.5,104.1 137.6,104.1 137.6,92.1 "/>
<rect x="128.5" y="152.1" class="st1" width="9.1" height="12"/>
<polygon class="st1" points="128.5,132.1 128.5,135.1 132,135.1 132,141.1 128.5,141.1 128.5,144.1 137.6,144.1 137.6,132.1 "/>
<rect x="128.5" y="192.1" class="st1" width="9.1" height="12"/>
<polygon class="st1" points="128.5,172.1 128.5,175.1 132,175.1 132,181.1 128.5,181.1 128.5,184.1 137.6,184.1 137.6,172.1 "/>
<rect x="128.5" y="232.1" class="st1" width="9.1" height="12"/>
<polygon class="st1" points="128.5,212.1 128.5,215.1 132,215.1 132,221.1 128.5,221.1 128.5,224.1 137.6,224.1 137.6,212.1 "/>
<rect x="128.5" y="272.1" class="st1" width="9.1" height="12"/>
<rect x="128.5" y="325.1" class="st1" width="9.1" height="12"/>
<polygon class="st1" points="128.5,252.1 128.5,255.1 132,255.1 132,261.1 128.5,261.1 128.5,264.1 137.6,264.1 137.6,252.1 "/>
<polygon class="st1" points="128.5,346.1 128.5,349.1 132,349.1 132,355.1 128.5,355.1 128.5,358.1 137.6,358.1 137.6,346.1 "/>
<rect x="170.6" y="14.1" class="st1" width="9.1" height="12"/>
<rect x="170.6" y="112.1" class="st1" width="9.1" height="12"/>
<rect x="170.6" y="310.1" class="st1" width="12.5" height="2"/>
<polygon class="st1" points="170.6,51.1 170.6,54.1 174,54.1 174,60.1 170.6,60.1 170.6,63.1 179.7,63.1 179.7,51.1 "/>
<polygon class="st1" points="170.6,71.1 170.6,74.1 174,74.1 174,80.1 170.6,80.1 170.6,83.1 179.7,83.1 179.7,71.1 "/>
<polygon class="st1" points="170.6,92.1 170.6,95.1 174,95.1 174,101.1 170.6,101.1 170.6,104.1 179.7,104.1 179.7,92.1 "/>
<rect x="170.6" y="152.1" class="st1" width="9.1" height="12"/>
<polygon class="st1" points="170.6,132.1 170.6,135.1 174,135.1 174,141.1 170.6,141.1 170.6,144.1 179.7,144.1 179.7,132.1 "/>
<rect x="170.6" y="192.1" class="st1" width="9.1" height="12"/>
<polygon class="st1" points="170.6,172.1 170.6,175.1 174,175.1 174,181.1 170.6,181.1 170.6,184.1 179.7,184.1 179.7,172.1 "/>
<rect x="170.6" y="232.1" class="st1" width="9.1" height="12"/>
<polygon class="st1" points="170.6,212.1 170.6,215.1 174,215.1 174,221.1 170.6,221.1 170.6,224.1 179.7,224.1 179.7,212.1 "/>
<rect x="170.6" y="272.1" class="st1" width="9.1" height="12"/>
<rect x="170.6" y="325.1" class="st1" width="9.1" height="12"/>
<polygon class="st1" points="170.6,252.1 170.6,255.1 174,255.1 174,261.1 170.6,261.1 170.6,264.1 179.7,264.1 179.7,252.1 "/>
<polygon class="st1" points="170.6,346.1 170.6,349.1 174,349.1 174,355.1 170.6,355.1 170.6,358.1 179.7,358.1 179.7,346.1 "/>
<polygon class="st1" points="47.9,325.1 47.9,328.1 51.3,328.1 51.3,334.1 47.9,334.1 47.9,337.1 57,337.1 57,325.1 "/>
<polygon class="st1" points="47.9,345.1 47.9,348.1 51.3,348.1 51.3,354.1 47.9,354.1 47.9,357.1 57,357.1 57,345.1 "/>
<polygon class="st1" points="2.5,112.1 2.5,115.1 5.9,115.1 5.9,121.1 2.5,121.1 2.5,124.1 11.6,124.1 11.6,112.1 "/>
<polygon class="st1" points="2.5,190.1 2.5,193.1 5.9,193.1 5.9,199.1 2.5,199.1 2.5,202.1 11.6,202.1 11.6,190.1 "/>
<polygon class="st1" points="2.5,210.1 2.5,213.1 5.9,213.1 5.9,219.1 2.5,219.1 2.5,222.1 11.6,222.1 11.6,210.1 "/>
<polygon class="st1" points="2.5,250.1 2.5,253.1 5.9,253.1 5.9,259.1 2.5,259.1 2.5,262.1 11.6,262.1 11.6,250.1 "/>
<polygon class="st1" points="2.5,308.1 2.5,311.1 5.9,311.1 5.9,317.1 2.5,317.1 2.5,320.1 11.6,320.1 11.6,308.1 "/>
<polygon class="st1" points="2.5,325.1 2.5,328.1 5.9,328.1 5.9,334.1 2.5,334.1 2.5,337.1 11.6,337.1 11.6,325.1 "/>
<rect x="93.3" y="17.1" class="st1" width="9.1" height="12"/>
<rect x="93.3" y="37.1" class="st1" width="9.1" height="12"/>
<rect x="89.9" y="59.1" class="st1" width="12.5" height="2"/>
<rect x="89.9" y="157.1" class="st1" width="12.5" height="2"/>
<rect x="89.9" y="174.1" class="st1" width="12.5" height="2"/>
<polygon class="st1" points="93.3,73.1 93.3,76.1 96.7,76.1 96.7,82.1 93.3,82.1 93.3,85.1 102.4,85.1 102.4,73.1 "/>
<polygon class="st1" points="93.3,112.1 93.3,115.1 96.7,115.1 96.7,121.1 93.3,121.1 93.3,124.1 102.4,124.1 102.4,112.1 "/>
<polygon class="st1" points="93.3,190.1 93.3,193.1 96.7,193.1 96.7,199.1 93.3,199.1 93.3,202.1 102.4,202.1 102.4,190.1 "/>
<rect x="193.3" y="152.1" class="st1" width="9.1" height="12"/>
<rect x="193.3" y="172.1" class="st1" width="9.1" height="12"/>
<rect x="189.9" y="193.1" class="st1" width="12.5" height="2"/>
<rect x="189.9" y="292.1" class="st1" width="12.5" height="2"/>
<rect x="189.9" y="309.1" class="st1" width="12.5" height="2"/>
<polygon class="st1" points="193.3,207.1 193.3,210.1 196.7,210.1 196.7,216.1 193.3,216.1 193.3,219.1 202.4,219.1 202.4,207.1 "/>
<polygon class="st1" points="193.3,246.1 193.3,249.1 196.7,249.1 196.7,255.1 193.3,255.1 193.3,258.1 202.4,258.1 202.4,246.1 "/>
<polygon class="st1" points="193.3,325.1 193.3,328.1 196.7,328.1 196.7,334.1 193.3,334.1 193.3,337.1 202.4,337.1 202.4,325.1 "/>
<rect x="221.7" y="17.1" class="st1" width="9.1" height="12"/>
<rect x="251.2" y="14.1" class="st1" width="9.1" height="12"/>
<rect x="267.1" y="14.1" class="st1" width="9.1" height="12"/>
<rect x="267.1" y="51.1" class="st1" width="9.1" height="12"/>
<rect x="284.2" y="33.1" class="st1" width="9.1" height="12"/>
<rect x="284.2" y="53.1" class="st1" width="9.1" height="12"/>
<rect x="267.1" y="91.1" class="st1" width="9.1" height="12"/>
<rect x="284.2" y="112.1" class="st1" width="9.1" height="12"/>
<rect x="267.1" y="187.1" class="st1" width="9.1" height="12"/>
<rect x="251.2" y="112.1" class="st1" width="9.1" height="12"/>
<rect x="221.7" y="37.1" class="st1" width="9.1" height="12"/>
<rect x="221.7" y="230.1" class="st1" width="9.1" height="12"/>
<rect x="221.7" y="270.1" class="st1" width="9.1" height="12"/>
<rect x="221.7" y="291.1" class="st1" width="9.1" height="12"/>
<rect x="218.3" y="59.1" class="st1" width="12.5" height="2"/>
<rect x="264.9" y="77.1" class="st1" width="12.5" height="2"/>
<rect x="218.3" y="157.1" class="st1" width="12.5" height="2"/>
<rect x="218.3" y="174.1" class="st1" width="12.5" height="2"/>
<rect x="264.9" y="273.1" class="st1" width="12.5" height="2"/>
<rect x="251.2" y="310.1" class="st1" width="12.5" height="2"/>
<polygon class="st1" points="221.7,73.1 221.7,76.1 225.1,76.1 225.1,82.1 221.7,82.1 221.7,85.1 230.8,85.1 230.8,73.1 "/>
<polygon class="st1" points="251.2,51.1 251.2,54.1 254.6,54.1 254.6,60.1 251.2,60.1 251.2,63.1 260.3,63.1 260.3,51.1 "/>
<polygon class="st1" points="284.2,71.1 284.2,74.1 288.7,74.1 288.7,80.1 284.2,80.1 284.2,83.1 293.2,83.1 293.2,71.1 "/>
<polygon class="st1" points="284.2,132.1 284.2,135.1 288.7,135.1 288.7,141.1 284.2,141.1 284.2,144.1 293.2,144.1 293.2,132.1 "/>
<polygon class="st1" points="284.2,152.1 284.2,155.1 288.7,155.1 288.7,161.1 284.2,161.1 284.2,164.1 293.2,164.1 293.2,152.1 "/>
<polygon class="st1" points="284.2,90.1 284.2,93.1 288.7,93.1 288.7,99.1 284.2,99.1 284.2,102.1 293.2,102.1 293.2,90.1 "/>
<polygon class="st1" points="267.1,33.1 267.1,36.1 270.5,36.1 270.5,42.1 267.1,42.1 267.1,45.1 276.2,45.1 276.2,33.1 "/>
<rect x="267.1" y="132.1" class="st1" width="9.1" height="12"/>
<rect x="267.1" y="169.1" class="st1" width="9.1" height="12"/>
<polygon class="st1" points="267.1,150.1 267.1,153.1 270.5,153.1 270.5,159.1 267.1,159.1 267.1,162.1 276.2,162.1 276.2,150.1 "/>
<polygon class="st1" points="251.2,71.1 251.2,74.1 254.6,74.1 254.6,80.1 251.2,80.1 251.2,83.1 260.3,83.1 260.3,71.1 "/>
<polygon class="st1" points="251.2,92.1 251.2,95.1 254.6,95.1 254.6,101.1 251.2,101.1 251.2,104.1 260.3,104.1 260.3,92.1 "/>
<rect x="251.2" y="152.1" class="st1" width="9.1" height="12"/>
<polygon class="st1" points="251.2,132.1 251.2,135.1 254.6,135.1 254.6,141.1 251.2,141.1 251.2,144.1 260.3,144.1 260.3,132.1 "/>
<rect x="251.2" y="192.1" class="st1" width="9.1" height="12"/>
<polygon class="st1" points="251.2,172.1 251.2,175.1 254.6,175.1 254.6,181.1 251.2,181.1 251.2,184.1 260.3,184.1 260.3,172.1 "/>
<rect x="251.2" y="232.1" class="st1" width="9.1" height="12"/>
<rect x="267.1" y="229.1" class="st1" width="9.1" height="12"/>
<polygon class="st1" points="251.2,212.1 251.2,215.1 254.6,215.1 254.6,221.1 251.2,221.1 251.2,224.1 260.3,224.1 260.3,212.1 "/>
<polygon class="st1" points="284.2,212.1 284.2,215.1 288.7,215.1 288.7,221.1 284.2,221.1 284.2,224.1 293.2,224.1 293.2,212.1 "/>
<rect x="373.9" y="33.1" class="st1" width="9.1" height="12"/>
<rect x="373.9" y="53.1" class="st1" width="9.1" height="12"/>
<rect x="373.9" y="112.1" class="st1" width="9.1" height="12"/>
<polygon class="st1" points="373.9,71.1 373.9,74.1 377.3,74.1 377.3,80.1 373.9,80.1 373.9,83.1 383,83.1 383,71.1 "/>
<polygon class="st1" points="373.9,132.1 373.9,135.1 377.3,135.1 377.3,141.1 373.9,141.1 373.9,144.1 383,144.1 383,132.1 "/>
<polygon class="st1" points="373.9,152.1 373.9,155.1 377.3,155.1 377.3,161.1 373.9,161.1 373.9,164.1 383,164.1 383,152.1 "/>
<polygon class="st1" points="373.9,90.1 373.9,93.1 377.3,93.1 377.3,99.1 373.9,99.1 373.9,102.1 383,102.1 383,90.1 "/>
<polygon class="st1" points="373.9,212.1 373.9,215.1 377.3,215.1 377.3,221.1 373.9,221.1 373.9,224.1 383,224.1 383,212.1 "/>
<rect x="251.2" y="272.1" class="st1" width="9.1" height="12"/>
<rect x="267.1" y="249.1" class="st1" width="9.1" height="12"/>
<rect x="251.2" y="325.1" class="st1" width="9.1" height="12"/>
<rect x="267.1" y="287.1" class="st1" width="9.1" height="12"/>
<polygon class="st1" points="251.2,252.1 251.2,255.1 254.6,255.1 254.6,261.1 251.2,261.1 251.2,264.1 260.3,264.1 260.3,252.1 "/>
<polygon class="st1" points="251.2,346.1 251.2,349.1 254.6,349.1 254.6,355.1 251.2,355.1 251.2,358.1 260.3,358.1 260.3,346.1 "/>
<rect x="347.8" y="14.1" class="st1" width="9.1" height="12"/>
<rect x="347.8" y="112.1" class="st1" width="9.1" height="12"/>
<rect x="347.8" y="310.1" class="st1" width="12.5" height="2"/>
<polygon class="st1" points="347.8,51.1 347.8,54.1 351.2,54.1 351.2,60.1 347.8,60.1 347.8,63.1 356.9,63.1 356.9,51.1 "/>
<polygon class="st1" points="347.8,71.1 347.8,74.1 351.2,74.1 351.2,80.1 347.8,80.1 347.8,83.1 356.9,83.1 356.9,71.1 "/>
<polygon class="st1" points="347.8,92.1 347.8,95.1 351.2,95.1 351.2,101.1 347.8,101.1 347.8,104.1 356.9,104.1 356.9,92.1 "/>
<rect x="347.8" y="152.1" class="st1" width="9.1" height="12"/>
<polygon class="st1" points="347.8,132.1 347.8,135.1 351.2,135.1 351.2,141.1 347.8,141.1 347.8,144.1 356.9,144.1 356.9,132.1 "/>
<rect x="347.8" y="192.1" class="st1" width="9.1" height="12"/>
<polygon class="st1" points="347.8,172.1 347.8,175.1 351.2,175.1 351.2,181.1 347.8,181.1 347.8,184.1 356.9,184.1 356.9,172.1 "/>
<rect x="347.8" y="232.1" class="st1" width="9.1" height="12"/>
<polygon class="st1" points="347.8,212.1 347.8,215.1 351.2,215.1 351.2,221.1 347.8,221.1 347.8,224.1 356.9,224.1 356.9,212.1 "/>
<rect x="347.8" y="272.1" class="st1" width="9.1" height="12"/>
<rect x="347.8" y="325.1" class="st1" width="9.1" height="12"/>
<polygon class="st1" points="347.8,252.1 347.8,255.1 351.2,255.1 351.2,261.1 347.8,261.1 347.8,264.1 356.9,264.1 356.9,252.1 "/>
<polygon class="st1" points="347.8,346.1 347.8,349.1 351.2,349.1 351.2,355.1 347.8,355.1 347.8,358.1 356.9,358.1 356.9,346.1 "/>
<rect x="389.8" y="14.1" class="st1" width="9.1" height="12"/>
<rect x="389.8" y="112.1" class="st1" width="9.1" height="12"/>
<rect x="389.8" y="310.1" class="st1" width="12.5" height="2"/>
<polygon class="st1" points="389.8,51.1 389.8,54.1 393.2,54.1 393.2,60.1 389.8,60.1 389.8,63.1 398.9,63.1 398.9,51.1 "/>
<polygon class="st1" points="389.8,71.1 389.8,74.1 393.2,74.1 393.2,80.1 389.8,80.1 389.8,83.1 398.9,83.1 398.9,71.1 "/>
<polygon class="st1" points="389.8,92.1 389.8,95.1 393.2,95.1 393.2,101.1 389.8,101.1 389.8,104.1 398.9,104.1 398.9,92.1 "/>
<rect x="389.8" y="152.1" class="st1" width="9.1" height="12"/>
<polygon class="st1" points="389.8,132.1 389.8,135.1 393.2,135.1 393.2,141.1 389.8,141.1 389.8,144.1 398.9,144.1 398.9,132.1 "/>
<rect x="389.8" y="192.1" class="st1" width="9.1" height="12"/>
<polygon class="st1" points="389.8,172.1 389.8,175.1 393.2,175.1 393.2,181.1 389.8,181.1 389.8,184.1 398.9,184.1 398.9,172.1 "/>
<rect x="389.8" y="232.1" class="st1" width="9.1" height="12"/>
<polygon class="st1" points="389.8,212.1 389.8,215.1 393.2,215.1 393.2,221.1 389.8,221.1 389.8,224.1 398.9,224.1 398.9,212.1 "/>
<rect x="389.8" y="272.1" class="st1" width="9.1" height="12"/>
<rect x="389.8" y="325.1" class="st1" width="9.1" height="12"/>
<polygon class="st1" points="389.8,252.1 389.8,255.1 393.2,255.1 393.2,261.1 389.8,261.1 389.8,264.1 398.9,264.1 398.9,252.1 "/>
<polygon class="st1" points="389.8,346.1 389.8,349.1 393.2,349.1 393.2,355.1 389.8,355.1 389.8,358.1 398.9,358.1 398.9,346.1 "/>
<polygon class="st1" points="267.1,325.1 267.1,328.1 270.5,328.1 270.5,334.1 267.1,334.1 267.1,337.1 276.2,337.1 276.2,325.1 "/>
<polygon class="st1" points="267.1,345.1 267.1,348.1 270.5,348.1 270.5,354.1 267.1,354.1 267.1,357.1 276.2,357.1 276.2,345.1 "/>
<polygon class="st1" points="221.7,112.1 221.7,115.1 225.1,115.1 225.1,121.1 221.7,121.1 221.7,124.1 230.8,124.1 230.8,112.1 "/>
<polygon class="st1" points="221.7,190.1 221.7,193.1 225.1,193.1 225.1,199.1 221.7,199.1 221.7,202.1 230.8,202.1 230.8,190.1 "/>
<polygon class="st1" points="221.7,210.1 221.7,213.1 225.1,213.1 225.1,219.1 221.7,219.1 221.7,222.1 230.8,222.1 230.8,210.1 "/>
<polygon class="st1" points="221.7,250.1 221.7,253.1 225.1,253.1 225.1,259.1 221.7,259.1 221.7,262.1 230.8,262.1 230.8,250.1 "/>
<polygon class="st1" points="221.7,308.1 221.7,311.1 225.1,311.1 225.1,317.1 221.7,317.1 221.7,320.1 230.8,320.1 230.8,308.1 "/>
<polygon class="st1" points="221.7,325.1 221.7,328.1 225.1,328.1 225.1,334.1 221.7,334.1 221.7,337.1 230.8,337.1 230.8,325.1 "/>
<rect x="312.6" y="17.1" class="st1" width="9.1" height="12"/>
<rect x="312.6" y="37.1" class="st1" width="9.1" height="12"/>
<rect x="309.2" y="59.1" class="st1" width="12.5" height="2"/>
<rect x="309.2" y="157.1" class="st1" width="12.5" height="2"/>
<rect x="309.2" y="174.1" class="st1" width="12.5" height="2"/>
<polygon class="st1" points="312.6,73.1 312.6,76.1 316,76.1 316,82.1 312.6,82.1 312.6,85.1 321.6,85.1 321.6,73.1 "/>
<polygon class="st1" points="312.6,112.1 312.6,115.1 316,115.1 316,121.1 312.6,121.1 312.6,124.1 321.6,124.1 321.6,112.1 "/>
<polygon class="st1" points="312.6,190.1 312.6,193.1 316,193.1 316,199.1 312.6,199.1 312.6,202.1 321.6,202.1 321.6,190.1 "/>
<rect x="412.5" y="152.1" class="st1" width="9.1" height="12"/>
<rect x="412.5" y="172.1" class="st1" width="9.1" height="12"/>
<rect x="409.1" y="193.1" class="st1" width="12.5" height="2"/>
<rect x="409.1" y="292.1" class="st1" width="12.5" height="2"/>
<rect x="409.1" y="309.1" class="st1" width="12.5" height="2"/>
<polygon class="st1" points="412.5,207.1 412.5,210.1 415.9,210.1 415.9,216.1 412.5,216.1 412.5,219.1 421.6,219.1 421.6,207.1 "/>
<polygon class="st1" points="412.5,246.1 412.5,249.1 415.9,249.1 415.9,255.1 412.5,255.1 412.5,258.1 421.6,258.1 421.6,246.1 "/>
<polygon class="st1" points="412.5,325.1 412.5,328.1 415.9,328.1 415.9,334.1 412.5,334.1 412.5,337.1 421.6,337.1 421.6,325.1 "/>
<rect x="440.9" y="17.1" class="st1" width="9.1" height="12"/>
<rect x="470.4" y="14.1" class="st1" width="9.1" height="12"/>
<rect x="486.3" y="14.1" class="st1" width="9.1" height="12"/>
<rect x="486.3" y="51.1" class="st1" width="9.1" height="12"/>
<rect x="503.4" y="33.1" class="st1" width="9.1" height="12"/>
<rect x="503.4" y="53.1" class="st1" width="9.1" height="12"/>
<rect x="486.3" y="91.1" class="st1" width="9.1" height="12"/>
<rect x="503.4" y="112.1" class="st1" width="9.1" height="12"/>
<rect x="486.3" y="187.1" class="st1" width="9.1" height="12"/>
<rect x="470.4" y="112.1" class="st1" width="9.1" height="12"/>
<rect x="440.9" y="37.1" class="st1" width="9.1" height="12"/>
<rect x="440.9" y="230.1" class="st1" width="9.1" height="12"/>
<rect x="440.9" y="270.1" class="st1" width="9.1" height="12"/>
<rect x="440.9" y="291.1" class="st1" width="9.1" height="12"/>
<rect x="437.5" y="59.1" class="st1" width="12.5" height="2"/>
<rect x="484.1" y="77.1" class="st1" width="12.5" height="2"/>
<rect x="437.5" y="157.1" class="st1" width="12.5" height="2"/>
<rect x="437.5" y="174.1" class="st1" width="12.5" height="2"/>
<rect x="484.1" y="273.1" class="st1" width="12.5" height="2"/>
<rect x="470.4" y="310.1" class="st1" width="12.5" height="2"/>
<polygon class="st1" points="440.9,73.1 440.9,76.1 444.3,76.1 444.3,82.1 440.9,82.1 440.9,85.1 450,85.1 450,73.1 "/>
<polygon class="st1" points="470.4,51.1 470.4,54.1 473.9,54.1 473.9,60.1 470.4,60.1 470.4,63.1 479.5,63.1 479.5,51.1 "/>
<polygon class="st1" points="503.4,71.1 503.4,74.1 506.8,74.1 506.8,80.1 503.4,80.1 503.4,83.1 512.5,83.1 512.5,71.1 "/>
<polygon class="st1" points="503.4,132.1 503.4,135.1 506.8,135.1 506.8,141.1 503.4,141.1 503.4,144.1 512.5,144.1 512.5,132.1 "/>
<polygon class="st1" points="503.4,152.1 503.4,155.1 506.8,155.1 506.8,161.1 503.4,161.1 503.4,164.1 512.5,164.1 512.5,152.1 "/>
<polygon class="st1" points="503.4,90.1 503.4,93.1 506.8,93.1 506.8,99.1 503.4,99.1 503.4,102.1 512.5,102.1 512.5,90.1 "/>
<polygon class="st1" points="486.3,33.1 486.3,36.1 489.8,36.1 489.8,42.1 486.3,42.1 486.3,45.1 495.4,45.1 495.4,33.1 "/>
<rect x="486.3" y="132.1" class="st1" width="9.1" height="12"/>
<rect x="486.3" y="169.1" class="st1" width="9.1" height="12"/>
<polygon class="st1" points="486.3,150.1 486.3,153.1 489.8,153.1 489.8,159.1 486.3,159.1 486.3,162.1 495.4,162.1 495.4,150.1 "/>
<polygon class="st1" points="470.4,71.1 470.4,74.1 473.9,74.1 473.9,80.1 470.4,80.1 470.4,83.1 479.5,83.1 479.5,71.1 "/>
<polygon class="st1" points="470.4,92.1 470.4,95.1 473.9,95.1 473.9,101.1 470.4,101.1 470.4,104.1 479.5,104.1 479.5,92.1 "/>
<rect x="470.4" y="152.1" class="st1" width="9.1" height="12"/>
<polygon class="st1" points="470.4,132.1 470.4,135.1 473.9,135.1 473.9,141.1 470.4,141.1 470.4,144.1 479.5,144.1 479.5,132.1 "/>
<rect x="470.4" y="192.1" class="st1" width="9.1" height="12"/>
<polygon class="st1" points="470.4,172.1 470.4,175.1 473.9,175.1 473.9,181.1 470.4,181.1 470.4,184.1 479.5,184.1 479.5,172.1 "/>
<rect x="470.4" y="232.1" class="st1" width="9.1" height="12"/>
<rect x="486.3" y="229.1" class="st1" width="9.1" height="12"/>
<polygon class="st1" points="470.4,212.1 470.4,215.1 473.9,215.1 473.9,221.1 470.4,221.1 470.4,224.1 479.5,224.1 479.5,212.1 "/>
<polygon class="st1" points="503.4,212.1 503.4,215.1 506.8,215.1 506.8,221.1 503.4,221.1 503.4,224.1 512.5,224.1 512.5,212.1 "/>
<rect x="593.1" y="33.1" class="st1" width="9.1" height="12"/>
<rect x="593.1" y="53.1" class="st1" width="9.1" height="12"/>
<rect x="593.1" y="112.1" class="st1" width="9.1" height="12"/>
<polygon class="st1" points="593.1,71.1 593.1,74.1 596.5,74.1 596.5,80.1 593.1,80.1 593.1,83.1 602.2,83.1 602.2,71.1 "/>
<polygon class="st1" points="593.1,132.1 593.1,135.1 596.5,135.1 596.5,141.1 593.1,141.1 593.1,144.1 602.2,144.1 602.2,132.1 "/>
<polygon class="st1" points="593.1,152.1 593.1,155.1 596.5,155.1 596.5,161.1 593.1,161.1 593.1,164.1 602.2,164.1 602.2,152.1 "/>
<polygon class="st1" points="593.1,90.1 593.1,93.1 596.5,93.1 596.5,99.1 593.1,99.1 593.1,102.1 602.2,102.1 602.2,90.1 "/>
<polygon class="st1" points="593.1,212.1 593.1,215.1 596.5,215.1 596.5,221.1 593.1,221.1 593.1,224.1 602.2,224.1 602.2,212.1 "/>
<rect x="470.4" y="272.1" class="st1" width="9.1" height="12"/>
<rect x="486.3" y="249.1" class="st1" width="9.1" height="12"/>
<rect x="470.4" y="325.1" class="st1" width="9.1" height="12"/>
<rect x="486.3" y="287.1" class="st1" width="9.1" height="12"/>
<polygon class="st1" points="470.4,252.1 470.4,255.1 473.9,255.1 473.9,261.1 470.4,261.1 470.4,264.1 479.5,264.1 479.5,252.1 "/>
<polygon class="st1" points="470.4,346.1 470.4,349.1 473.9,349.1 473.9,355.1 470.4,355.1 470.4,358.1 479.5,358.1 479.5,346.1 "/>
<rect x="567" y="14.1" class="st1" width="9.1" height="12"/>
<rect x="567" y="112.1" class="st1" width="9.1" height="12"/>
<rect x="567" y="310.1" class="st1" width="12.5" height="2"/>
<polygon class="st1" points="567,51.1 567,54.1 570.4,54.1 570.4,60.1 567,60.1 567,63.1 576.1,63.1 576.1,51.1 "/>
<polygon class="st1" points="567,71.1 567,74.1 570.4,74.1 570.4,80.1 567,80.1 567,83.1 576.1,83.1 576.1,71.1 "/>
<polygon class="st1" points="567,92.1 567,95.1 570.4,95.1 570.4,101.1 567,101.1 567,104.1 576.1,104.1 576.1,92.1 "/>
<rect x="567" y="152.1" class="st1" width="9.1" height="12"/>
<polygon class="st1" points="567,132.1 567,135.1 570.4,135.1 570.4,141.1 567,141.1 567,144.1 576.1,144.1 576.1,132.1 "/>
<rect x="567" y="192.1" class="st1" width="9.1" height="12"/>
<polygon class="st1" points="567,172.1 567,175.1 570.4,175.1 570.4,181.1 567,181.1 567,184.1 576.1,184.1 576.1,172.1 "/>
<rect x="567" y="232.1" class="st1" width="9.1" height="12"/>
<polygon class="st1" points="567,212.1 567,215.1 570.4,215.1 570.4,221.1 567,221.1 567,224.1 576.1,224.1 576.1,212.1 "/>
<rect x="567" y="272.1" class="st1" width="9.1" height="12"/>
<rect x="567" y="325.1" class="st1" width="9.1" height="12"/>
<polygon class="st1" points="567,252.1 567,255.1 570.4,255.1 570.4,261.1 567,261.1 567,264.1 576.1,264.1 576.1,252.1 "/>
<polygon class="st1" points="567,346.1 567,349.1 570.4,349.1 570.4,355.1 567,355.1 567,358.1 576.1,358.1 576.1,346.1 "/>
<rect x="609" y="14.1" class="st1" width="9.1" height="12"/>
<rect x="609" y="112.1" class="st1" width="9.1" height="12"/>
<rect x="609" y="310.1" class="st1" width="12.5" height="2"/>
<polygon class="st1" points="609,51.1 609,54.1 612.4,54.1 612.4,60.1 609,60.1 609,63.1 618.1,63.1 618.1,51.1 "/>
<polygon class="st1" points="609,71.1 609,74.1 612.4,74.1 612.4,80.1 609,80.1 609,83.1 618.1,83.1 618.1,71.1 "/>
<polygon class="st1" points="609,92.1 609,95.1 612.4,95.1 612.4,101.1 609,101.1 609,104.1 618.1,104.1 618.1,92.1 "/>
<rect x="609" y="152.1" class="st1" width="9.1" height="12"/>
<polygon class="st1" points="609,132.1 609,135.1 612.4,135.1 612.4,141.1 609,141.1 609,144.1 618.1,144.1 618.1,132.1 "/>
<rect x="609" y="192.1" class="st1" width="9.1" height="12"/>
<polygon class="st1" points="609,172.1 609,175.1 612.4,175.1 612.4,181.1 609,181.1 609,184.1 618.1,184.1 618.1,172.1 "/>
<rect x="609" y="232.1" class="st1" width="9.1" height="12"/>
<polygon class="st1" points="609,212.1 609,215.1 612.4,215.1 612.4,221.1 609,221.1 609,224.1 618.1,224.1 618.1,212.1 "/>
<rect x="609" y="272.1" class="st1" width="9.1" height="12"/>
<rect x="609" y="325.1" class="st1" width="9.1" height="12"/>
<polygon class="st1" points="609,252.1 609,255.1 612.4,255.1 612.4,261.1 609,261.1 609,264.1 618.1,264.1 618.1,252.1 "/>
<polygon class="st1" points="609,346.1 609,349.1 612.4,349.1 612.4,355.1 609,355.1 609,358.1 618.1,358.1 618.1,346.1 "/>
<polygon class="st1" points="486.3,325.1 486.3,328.1 489.8,328.1 489.8,334.1 486.3,334.1 486.3,337.1 495.4,337.1 495.4,325.1 "/>
<polygon class="st1" points="486.3,345.1 486.3,348.1 489.8,348.1 489.8,354.1 486.3,354.1 486.3,357.1 495.4,357.1 495.4,345.1 "/>
<polygon class="st1" points="440.9,112.1 440.9,115.1 444.3,115.1 444.3,121.1 440.9,121.1 440.9,124.1 450,124.1 450,112.1 "/>
<polygon class="st1" points="440.9,190.1 440.9,193.1 444.3,193.1 444.3,199.1 440.9,199.1 440.9,202.1 450,202.1 450,190.1 "/>
<polygon class="st1" points="440.9,210.1 440.9,213.1 444.3,213.1 444.3,219.1 440.9,219.1 440.9,222.1 450,222.1 450,210.1 "/>
<polygon class="st1" points="440.9,250.1 440.9,253.1 444.3,253.1 444.3,259.1 440.9,259.1 440.9,262.1 450,262.1 450,250.1 "/>
<polygon class="st1" points="440.9,308.1 440.9,311.1 444.3,311.1 444.3,317.1 440.9,317.1 440.9,320.1 450,320.1 450,308.1 "/>
<polygon class="st1" points="440.9,325.1 440.9,328.1 444.3,328.1 444.3,334.1 440.9,334.1 440.9,337.1 450,337.1 450,325.1 "/>
<rect x="531.8" y="17.1" class="st1" width="9.1" height="12"/>
<rect x="531.8" y="37.1" class="st1" width="9.1" height="12"/>
<rect x="528.4" y="59.1" class="st1" width="12.5" height="2"/>
<rect x="528.4" y="157.1" class="st1" width="12.5" height="2"/>
<rect x="528.4" y="174.1" class="st1" width="12.5" height="2"/>
<polygon class="st1" points="531.8,73.1 531.8,76.1 535.2,76.1 535.2,82.1 531.8,82.1 531.8,85.1 540.9,85.1 540.9,73.1 "/>
<polygon class="st1" points="531.8,112.1 531.8,115.1 535.2,115.1 535.2,121.1 531.8,121.1 531.8,124.1 540.9,124.1 540.9,112.1 "/>
<polygon class="st1" points="531.8,190.1 531.8,193.1 535.2,193.1 535.2,199.1 531.8,199.1 531.8,202.1 540.9,202.1 540.9,190.1 "/>
<rect x="631.7" y="152.1" class="st1" width="9.1" height="12"/>
<rect x="631.7" y="172.1" class="st1" width="9.1" height="12"/>
<rect x="628.3" y="193.1" class="st1" width="12.5" height="2"/>
<rect x="628.3" y="292.1" class="st1" width="12.5" height="2"/>
<rect x="628.3" y="309.1" class="st1" width="12.5" height="2"/>
<polygon class="st1" points="631.7,207.1 631.7,210.1 635.1,210.1 635.1,216.1 631.7,216.1 631.7,219.1 640.8,219.1 640.8,207.1 "/>
<polygon class="st1" points="631.7,246.1 631.7,249.1 635.1,249.1 635.1,255.1 631.7,255.1 631.7,258.1 640.8,258.1 640.8,246.1 "/>
<polygon class="st1" points="631.7,325.1 631.7,328.1 635.1,328.1 635.1,334.1 631.7,334.1 631.7,337.1 640.8,337.1 640.8,325.1 "/>
<rect x="66.1" y="657.1" class="st2" width="817.8" height="3"/>
<path class="st2" d="M260.3,355.3v52l8,32c0,0-1.1,20,0,26s-1.1,16-8,16c-6.8,0-10.2,15-10.2,15s-2.3,6-8,7c-5.7,1-5.7,0-5.7,0
	l-4.5,10l-94.3,55l18.2,40c0,0,28.4-9,30.7-12s21.6,4,21.6-3s3.4-25,10.2-26s63.6-24,63.6-24s29.5-29,31.8-40
	c2.3-11,12.5-42,12.5-42l28.4,42v84l-4.5,45l50-6c0,0-4.5-28,0-32c4.5-4,11.4-52,6.8-58c-4.5-6,2.3-33,0-37c-2.3-4-1.1-33-6.8-41
	s-39.8-90-39.8-90L260.3,355.3z"/>
<path class="st2" d="M357.2,630.3c0,0-17,25-5.7,28s32.9,0,35.2,0c2.3,0,43.2,1,43.2,1s27.3-5,27.3-12s-17-7-22.7-8
	s-40.9-13-40.9-13L357.2,630.3z"/>
<path class="st3" d="M143.2,569.5c0,0-32.8-3.8-31.5,6.5c1.4,10.3,13.1,26.6,14,28.4c0.6,1.2,7.8,17,12.4,27
	c3.3,7.4,8.3,14,14.5,19.7c4.4,3.9,9.3,7.1,12.5,5.9c7.3-2.8,0.6-16.5-0.7-21.5s-2.7-38.2-2.7-38.2L143.2,569.5z"/>
<path class="st4" d="M371.1,189.8l36.3-74c0,0-3.4-7-11.4-6c0,0-10.8-24.5-31.2-24.5c0,0-30.7-15-39.8,0c0,0-19.3,15-18.2,29
	s2.3,24,2.3,24s-18.2,2-14.8,10c3.4,8,4.5,8,0,11l-4.5,3c0,0-94.3,75-42,185l4.5,17v16c0,0,114.7,1,114.7,0s-2.3-7,2.3-11
	c4.5-4,4.5-10,4.5-10s-4.5-20-2.3-26c2.3-6,3.4-32-1.1-38c-4.5-6-2.3-54-2.3-54l10.2-17l-3.4-10l-3.4-10L371.1,189.8z"/>
<path class="st5" d="M361.7,390.3c0,0-13.6-33-12.5-39s-2.3-18-2.3-18l-4.5-81c0,0,19.3-72-23.9-84c0,0-10.9,4.2-19.9,17.7
	c-8.9,3.5-19.5,12.3-22.1,34.3c-4.5,39,15.9,139,26.1,156c10.2,17,17,29,17,29l10.7-4.2c0.5,0.8,0.7,1.2,0.7,1.2L361.7,390.3z"/>
<ellipse class="st6" cx="368" cy="177.8" rx="3.4" ry="3"/>
<rect x="367.1" y="178.1" class="st7" width="2.3" height="47"/>
<path class="st8" d="M327.1,393.8l9.1,17c0,0,20.4-6,20.4-9s-9.1-16-9.1-16L327.1,393.8z"/>
<path class="st4" d="M314,168.3c0,0-26.1,10-30.7,49c-4.5,39,15.9,139,26.1,156c10.2,17,17,29,17,29l30.7-12c0,0-13.6-33-12.5-39
	s-2.3-18-2.3-18l-4.5-81C337.9,252.3,357.2,180.3,314,168.3z"/>
</svg>
