<?xml version="1.0" encoding="utf-8"?>
<!-- Generator: Adobe Illustrator 24.0.0, SVG Export Plug-In . SVG Version: 6.00 Build 0)  -->
<svg version="1.1" id="a3f4169a-5e5e-4255-abcc-1b8759c50498"
	 xmlns="http://www.w3.org/2000/svg" xmlns:xlink="http://www.w3.org/1999/xlink" x="0px" y="0px" viewBox="0 0 883.9 658.1"
	 style="enable-background:new 0 0 883.9 658.1;" xml:space="preserve">
<style type="text/css">
	.st0{opacity:0;fill:#3F3D56;}
	.st1{fill:#44D62C;}
	.st2{fill:#3B3B49;}
	.st3{fill:#29293A;}
	.st4{fill:#8985A8;}
	.st5{opacity:0.1;enable-background:new    ;}
	.st6{fill:#F2F2F2;}
	.st7{fill:#3F3D56;}
	.st8{fill:#FFB8B8;}
</style>
<title>hacker_mind</title>
<rect x="-10.2" class="st0" width="584" height="419.7"/>
<rect y="15.4" class="st1" width="7.7" height="12.3"/>
<rect x="26.2" y="12.3" class="st1" width="7.7" height="12.3"/>
<rect x="40.1" y="12.3" class="st1" width="7.7" height="12.3"/>
<rect x="40.1" y="49.3" class="st1" width="7.7" height="12.3"/>
<rect x="55.6" y="30.8" class="st1" width="7.7" height="12.3"/>
<rect x="55.6" y="50.9" class="st1" width="7.7" height="12.3"/>
<rect x="40.1" y="89.4" class="st1" width="7.7" height="12.3"/>
<rect x="55.6" y="109.5" class="st1" width="7.7" height="12.3"/>
<rect x="40.1" y="185.1" class="st1" width="7.7" height="12.3"/>
<rect x="26.2" y="109.5" class="st1" width="7.7" height="12.3"/>
<rect y="35.4" class="st1" width="7.7" height="12.3"/>
<rect y="228.3" class="st1" width="7.7" height="12.3"/>
<rect y="268.4" class="st1" width="7.7" height="12.3"/>
<rect y="288.5" class="st1" width="7.7" height="12.3"/>
<rect x="-3.1" y="57" class="st1" width="10.8" height="1.5"/>
<rect x="38.6" y="75.5" class="st1" width="10.8" height="1.5"/>
<rect x="-3.1" y="155.8" class="st1" width="10.8" height="1.5"/>
<rect x="-3.1" y="172.8" class="st1" width="10.8" height="1.5"/>
<rect x="38.6" y="271.5" class="st1" width="10.8" height="1.5"/>
<rect x="26.2" y="308.6" class="st1" width="10.8" height="1.5"/>
<polygon class="st1" points="0,70.9 0,74 3.1,74 3.1,80.2 0,80.2 0,83.3 7.7,83.3 7.7,70.9 "/>
<polygon class="st1" points="26.2,49.3 26.2,52.4 29.3,52.4 29.3,58.6 26.2,58.6 26.2,61.7 34,61.7 34,49.3 "/>
<polygon class="st1" points="55.6,69.4 55.6,72.5 58.6,72.5 58.6,78.6 55.6,78.6 55.6,81.7 63.3,81.7 63.3,69.4 "/>
<polygon class="st1" points="55.6,129.6 55.6,132.6 58.6,132.6 58.6,138.8 55.6,138.8 55.6,141.9 63.3,141.9 63.3,129.6 "/>
<polygon class="st1" points="55.6,149.6 55.6,152.7 58.6,152.7 58.6,158.9 55.6,158.9 55.6,162 63.3,162 63.3,149.6 "/>
<polygon class="st1" points="55.6,87.9 55.6,91 58.6,91 58.6,97.1 55.6,97.1 55.6,100.2 63.3,100.2 63.3,87.9 "/>
<polygon class="st1" points="40.1,30.8 40.1,33.9 43.2,33.9 43.2,40 40.1,40 40.1,43.1 47.8,43.1 47.8,30.8 "/>
<rect x="40.1" y="129.6" class="st1" width="7.7" height="12.3"/>
<rect x="40.1" y="166.6" class="st1" width="7.7" height="12.3"/>
<polygon class="st1" points="40.1,148.1 40.1,151.2 43.2,151.2 43.2,157.3 40.1,157.3 40.1,160.4 47.8,160.4 47.8,148.1 "/>
<polygon class="st1" points="26.2,69.4 26.2,72.5 29.3,72.5 29.3,78.6 26.2,78.6 26.2,81.7 34,81.7 34,69.4 "/>
<polygon class="st1" points="26.2,89.4 26.2,92.5 29.3,92.5 29.3,98.7 26.2,98.7 26.2,101.8 34,101.8 34,89.4 "/>
<rect x="26.2" y="149.6" class="st1" width="7.7" height="12.3"/>
<polygon class="st1" points="26.2,129.6 26.2,132.6 29.3,132.6 29.3,138.8 26.2,138.8 26.2,141.9 34,141.9 34,129.6 "/>
<rect x="26.2" y="189.7" class="st1" width="7.7" height="12.3"/>
<polygon class="st1" points="26.2,169.7 26.2,172.8 29.3,172.8 29.3,178.9 26.2,178.9 26.2,182 34,182 34,169.7 "/>
<rect x="26.2" y="229.9" class="st1" width="7.7" height="12.3"/>
<rect x="40.1" y="226.8" class="st1" width="7.7" height="12.3"/>
<polygon class="st1" points="26.2,209.8 26.2,212.9 29.3,212.9 29.3,219.1 26.2,219.1 26.2,222.1 34,222.1 34,209.8 "/>
<polygon class="st1" points="55.6,209.8 55.6,212.9 58.6,212.9 58.6,219.1 55.6,219.1 55.6,222.1 63.3,222.1 63.3,209.8 "/>
<rect x="134.3" y="30.8" class="st1" width="7.7" height="12.3"/>
<rect x="134.3" y="50.9" class="st1" width="7.7" height="12.3"/>
<rect x="134.3" y="109.5" class="st1" width="7.7" height="12.3"/>
<polygon class="st1" points="134.3,69.4 134.3,72.5 137.3,72.5 137.3,78.6 134.3,78.6 134.3,81.7 142,81.7 142,69.4 "/>
<polygon class="st1" points="134.3,129.6 134.3,132.6 137.3,132.6 137.3,138.8 134.3,138.8 134.3,141.9 142,141.9 142,129.6 "/>
<polygon class="st1" points="134.3,149.6 134.3,152.7 137.3,152.7 137.3,158.9 134.3,158.9 134.3,162 142,162 142,149.6 "/>
<polygon class="st1" points="134.3,87.9 134.3,91 137.3,91 137.3,97.1 134.3,97.1 134.3,100.2 142,100.2 142,87.9 "/>
<polygon class="st1" points="134.3,209.8 134.3,212.9 137.3,212.9 137.3,219.1 134.3,219.1 134.3,222.1 142,222.1 142,209.8 "/>
<rect x="26.2" y="270" class="st1" width="7.7" height="12.3"/>
<rect x="40.1" y="246.8" class="st1" width="7.7" height="12.3"/>
<rect x="26.2" y="322.5" class="st1" width="7.7" height="12.3"/>
<rect x="40.1" y="285.4" class="st1" width="7.7" height="12.3"/>
<polygon class="st1" points="26.2,249.9 26.2,253 29.3,253 29.3,259.2 26.2,259.2 26.2,262.3 34,262.3 34,249.9 "/>
<polygon class="st1" points="26.2,344.1 26.2,347.1 29.3,347.1 29.3,353.3 26.2,353.3 26.2,356.4 34,356.4 34,344.1 "/>
<rect x="111.1" y="12.3" class="st1" width="7.7" height="12.3"/>
<rect x="111.1" y="109.5" class="st1" width="7.7" height="12.3"/>
<rect x="111.1" y="308.6" class="st1" width="10.8" height="1.5"/>
<polygon class="st1" points="111.1,49.3 111.1,52.4 114.2,52.4 114.2,58.6 111.1,58.6 111.1,61.7 118.8,61.7 118.8,49.3 "/>
<polygon class="st1" points="111.1,69.4 111.1,72.5 114.2,72.5 114.2,78.6 111.1,78.6 111.1,81.7 118.8,81.7 118.8,69.4 "/>
<polygon class="st1" points="111.1,89.4 111.1,92.5 114.2,92.5 114.2,98.7 111.1,98.7 111.1,101.8 118.8,101.8 118.8,89.4 "/>
<rect x="111.1" y="149.6" class="st1" width="7.7" height="12.3"/>
<polygon class="st1" points="111.1,129.6 111.1,132.6 114.2,132.6 114.2,138.8 111.1,138.8 111.1,141.9 118.8,141.9 118.8,129.6 "/>
<rect x="111.1" y="189.7" class="st1" width="7.7" height="12.3"/>
<polygon class="st1" points="111.1,169.7 111.1,172.8 114.2,172.8 114.2,178.9 111.1,178.9 111.1,182 118.8,182 118.8,169.7 "/>
<rect x="111.1" y="229.9" class="st1" width="7.7" height="12.3"/>
<polygon class="st1" points="111.1,209.8 111.1,212.9 114.2,212.9 114.2,219.1 111.1,219.1 111.1,222.1 118.8,222.1 118.8,209.8 "/>
<rect x="111.1" y="270" class="st1" width="7.7" height="12.3"/>
<rect x="111.1" y="322.5" class="st1" width="7.7" height="12.3"/>
<polygon class="st1" points="111.1,249.9 111.1,253 114.2,253 114.2,259.2 111.1,259.2 111.1,262.3 118.8,262.3 118.8,249.9 "/>
<polygon class="st1" points="111.1,344.1 111.1,347.1 114.2,347.1 114.2,353.3 111.1,353.3 111.1,356.4 118.8,356.4 118.8,344.1 "/>
<rect x="148.1" y="12.3" class="st1" width="7.7" height="12.3"/>
<rect x="148.1" y="109.5" class="st1" width="7.7" height="12.3"/>
<rect x="148.1" y="308.6" class="st1" width="10.8" height="1.5"/>
<polygon class="st1" points="148.1,49.3 148.1,52.4 151.2,52.4 151.2,58.6 148.1,58.6 148.1,61.7 155.9,61.7 155.9,49.3 "/>
<polygon class="st1" points="148.1,69.4 148.1,72.5 151.2,72.5 151.2,78.6 148.1,78.6 148.1,81.7 155.9,81.7 155.9,69.4 "/>
<polygon class="st1" points="148.1,89.4 148.1,92.5 151.2,92.5 151.2,98.7 148.1,98.7 148.1,101.8 155.9,101.8 155.9,89.4 "/>
<rect x="148.1" y="149.6" class="st1" width="7.7" height="12.3"/>
<polygon class="st1" points="148.1,129.6 148.1,132.6 151.2,132.6 151.2,138.8 148.1,138.8 148.1,141.9 155.9,141.9 155.9,129.6 "/>
<rect x="148.1" y="189.7" class="st1" width="7.7" height="12.3"/>
<polygon class="st1" points="148.1,169.7 148.1,172.8 151.2,172.8 151.2,178.9 148.1,178.9 148.1,182 155.9,182 155.9,169.7 "/>
<rect x="148.1" y="229.9" class="st1" width="7.7" height="12.3"/>
<polygon class="st1" points="148.1,209.8 148.1,212.9 151.2,212.9 151.2,219.1 148.1,219.1 148.1,222.1 155.9,222.1 155.9,209.8 "/>
<rect x="148.1" y="270" class="st1" width="7.7" height="12.3"/>
<rect x="148.1" y="322.5" class="st1" width="7.7" height="12.3"/>
<polygon class="st1" points="148.1,249.9 148.1,253 151.2,253 151.2,259.2 148.1,259.2 148.1,262.3 155.9,262.3 155.9,249.9 "/>
<polygon class="st1" points="148.1,344.1 148.1,347.1 151.2,347.1 151.2,353.3 148.1,353.3 148.1,356.4 155.9,356.4 155.9,344.1 "/>
<polygon class="st1" points="40.1,322.5 40.1,325.5 43.2,325.5 43.2,331.7 40.1,331.7 40.1,334.8 47.8,334.8 47.8,322.5 "/>
<polygon class="st1" points="40.1,342.5 40.1,345.6 43.2,345.6 43.2,351.8 40.1,351.8 40.1,354.9 47.8,354.9 47.8,342.5 "/>
<polygon class="st1" points="0,109.5 0,112.6 3.1,112.6 3.1,118.8 0,118.8 0,121.8 7.7,121.8 7.7,109.5 "/>
<polygon class="st1" points="0,188.2 0,191.3 3.1,191.3 3.1,197.5 0,197.5 0,200.5 7.7,200.5 7.7,188.2 "/>
<polygon class="st1" points="0,208.3 0,211.3 3.1,211.3 3.1,217.5 0,217.5 0,220.6 7.7,220.6 7.7,208.3 "/>
<polygon class="st1" points="0,248.4 0,251.5 3.1,251.5 3.1,257.6 0,257.6 0,260.7 7.7,260.7 7.7,248.4 "/>
<polygon class="st1" points="0,305.5 0,308.6 3.1,308.6 3.1,314.7 0,314.7 0,317.8 7.7,317.8 7.7,305.5 "/>
<polygon class="st1" points="0,322.5 0,325.5 3.1,325.5 3.1,331.7 0,331.7 0,334.8 7.7,334.8 7.7,322.5 "/>
<rect x="80.2" y="15.4" class="st1" width="7.7" height="12.3"/>
<rect x="80.2" y="35.4" class="st1" width="7.7" height="12.3"/>
<rect x="77.2" y="57" class="st1" width="10.8" height="1.5"/>
<rect x="77.2" y="155.8" class="st1" width="10.8" height="1.5"/>
<rect x="77.2" y="172.8" class="st1" width="10.8" height="1.5"/>
<polygon class="st1" points="80.2,70.9 80.2,74 83.3,74 83.3,80.2 80.2,80.2 80.2,83.3 88,83.3 88,70.9 "/>
<polygon class="st1" points="80.2,109.5 80.2,112.6 83.3,112.6 83.3,118.8 80.2,118.8 80.2,121.8 88,121.8 88,109.5 "/>
<polygon class="st1" points="80.2,188.2 80.2,191.3 83.3,191.3 83.3,197.5 80.2,197.5 80.2,200.5 88,200.5 88,188.2 "/>
<rect x="168.2" y="149.6" class="st1" width="7.7" height="12.3"/>
<rect x="168.2" y="169.7" class="st1" width="7.7" height="12.3"/>
<rect x="165.1" y="191.3" class="st1" width="10.8" height="1.5"/>
<rect x="165.1" y="290" class="st1" width="10.8" height="1.5"/>
<rect x="165.1" y="307" class="st1" width="10.8" height="1.5"/>
<polygon class="st1" points="168.2,205.2 168.2,208.3 171.3,208.3 171.3,214.4 168.2,214.4 168.2,217.5 175.9,217.5 175.9,205.2 "/>
<polygon class="st1" points="168.2,243.8 168.2,246.8 171.3,246.8 171.3,253 168.2,253 168.2,256.1 175.9,256.1 175.9,243.8 "/>
<polygon class="st1" points="168.2,322.5 168.2,325.5 171.3,325.5 171.3,331.7 168.2,331.7 168.2,334.8 175.9,334.8 175.9,322.5 "/>
<rect x="192.9" y="15.4" class="st1" width="7.7" height="12.3"/>
<rect x="219.1" y="12.3" class="st1" width="7.7" height="12.3"/>
<rect x="233" y="12.3" class="st1" width="7.7" height="12.3"/>
<rect x="233" y="49.3" class="st1" width="7.7" height="12.3"/>
<rect x="248.5" y="30.8" class="st1" width="7.7" height="12.3"/>
<rect x="248.5" y="50.9" class="st1" width="7.7" height="12.3"/>
<rect x="233" y="89.4" class="st1" width="7.7" height="12.3"/>
<rect x="248.5" y="109.5" class="st1" width="7.7" height="12.3"/>
<rect x="233" y="185.1" class="st1" width="7.7" height="12.3"/>
<rect x="219.1" y="109.5" class="st1" width="7.7" height="12.3"/>
<rect x="192.9" y="35.4" class="st1" width="7.7" height="12.3"/>
<rect x="192.9" y="228.3" class="st1" width="7.7" height="12.3"/>
<rect x="192.9" y="268.4" class="st1" width="7.7" height="12.3"/>
<rect x="192.9" y="288.5" class="st1" width="7.7" height="12.3"/>
<rect x="189.8" y="57" class="st1" width="10.8" height="1.5"/>
<rect x="231.5" y="75.5" class="st1" width="10.8" height="1.5"/>
<rect x="189.8" y="155.8" class="st1" width="10.8" height="1.5"/>
<rect x="189.8" y="172.8" class="st1" width="10.8" height="1.5"/>
<rect x="231.5" y="271.5" class="st1" width="10.8" height="1.5"/>
<rect x="219.1" y="308.6" class="st1" width="10.8" height="1.5"/>
<polygon class="st1" points="192.9,70.9 192.9,74 196,74 196,80.2 192.9,80.2 192.9,83.3 200.6,83.3 200.6,70.9 "/>
<polygon class="st1" points="219.1,49.3 219.1,52.4 222.2,52.4 222.2,58.6 219.1,58.6 219.1,61.7 226.9,61.7 226.9,49.3 "/>
<polygon class="st1" points="248.5,69.4 248.5,72.5 251.5,72.5 251.5,78.6 248.5,78.6 248.5,81.7 256.2,81.7 256.2,69.4 "/>
<polygon class="st1" points="248.5,129.6 248.5,132.6 251.5,132.6 251.5,138.8 248.5,138.8 248.5,141.9 256.2,141.9 256.2,129.6 "/>
<polygon class="st1" points="248.5,149.6 248.5,152.7 251.5,152.7 251.5,158.9 248.5,158.9 248.5,162 256.2,162 256.2,149.6 "/>
<polygon class="st1" points="248.5,87.9 248.5,91 251.5,91 251.5,97.1 248.5,97.1 248.5,100.2 256.2,100.2 256.2,87.9 "/>
<polygon class="st1" points="233,30.8 233,33.9 236.1,33.9 236.1,40 233,40 233,43.1 240.7,43.1 240.7,30.8 "/>
<rect x="233" y="129.6" class="st1" width="7.7" height="12.3"/>
<rect x="233" y="166.6" class="st1" width="7.7" height="12.3"/>
<polygon class="st1" points="233,148.1 233,151.2 236.1,151.2 236.1,157.3 233,157.3 233,160.4 240.7,160.4 240.7,148.1 "/>
<polygon class="st1" points="219.1,69.4 219.1,72.5 222.2,72.5 222.2,78.6 219.1,78.6 219.1,81.7 226.9,81.7 226.9,69.4 "/>
<polygon class="st1" points="219.1,89.4 219.1,92.5 222.2,92.5 222.2,98.7 219.1,98.7 219.1,101.8 226.9,101.8 226.9,89.4 "/>
<rect x="219.1" y="149.6" class="st1" width="7.7" height="12.3"/>
<polygon class="st1" points="219.1,129.6 219.1,132.6 222.2,132.6 222.2,138.8 219.1,138.8 219.1,141.9 226.9,141.9 226.9,129.6 "/>
<rect x="219.1" y="189.7" class="st1" width="7.7" height="12.3"/>
<polygon class="st1" points="219.1,169.7 219.1,172.8 222.2,172.8 222.2,178.9 219.1,178.9 219.1,182 226.9,182 226.9,169.7 "/>
<rect x="219.1" y="229.9" class="st1" width="7.7" height="12.3"/>
<rect x="233" y="226.8" class="st1" width="7.7" height="12.3"/>
<polygon class="st1" points="219.1,209.8 219.1,212.9 222.2,212.9 222.2,219.1 219.1,219.1 219.1,222.1 226.9,222.1 226.9,209.8 "/>
<polygon class="st1" points="248.5,209.8 248.5,212.9 251.5,212.9 251.5,219.1 248.5,219.1 248.5,222.1 256.2,222.1 256.2,209.8 "/>
<rect x="327.2" y="30.8" class="st1" width="7.7" height="12.3"/>
<rect x="327.2" y="50.9" class="st1" width="7.7" height="12.3"/>
<rect x="327.2" y="109.5" class="st1" width="7.7" height="12.3"/>
<polygon class="st1" points="327.2,69.4 327.2,72.5 330.2,72.5 330.2,78.6 327.2,78.6 327.2,81.7 334.9,81.7 334.9,69.4 "/>
<polygon class="st1" points="327.2,129.6 327.2,132.6 330.2,132.6 330.2,138.8 327.2,138.8 327.2,141.9 334.9,141.9 334.9,129.6 "/>
<polygon class="st1" points="327.2,149.6 327.2,152.7 330.2,152.7 330.2,158.9 327.2,158.9 327.2,162 334.9,162 334.9,149.6 "/>
<polygon class="st1" points="327.2,87.9 327.2,91 330.2,91 330.2,97.1 327.2,97.1 327.2,100.2 334.9,100.2 334.9,87.9 "/>
<polygon class="st1" points="327.2,209.8 327.2,212.9 330.2,212.9 330.2,219.1 327.2,219.1 327.2,222.1 334.9,222.1 334.9,209.8 "/>
<rect x="219.1" y="270" class="st1" width="7.7" height="12.3"/>
<rect x="233" y="246.8" class="st1" width="7.7" height="12.3"/>
<rect x="219.1" y="322.5" class="st1" width="7.7" height="12.3"/>
<rect x="233" y="285.4" class="st1" width="7.7" height="12.3"/>
<polygon class="st1" points="219.1,249.9 219.1,253 222.2,253 222.2,259.2 219.1,259.2 219.1,262.3 226.9,262.3 226.9,249.9 "/>
<polygon class="st1" points="219.1,344.1 219.1,347.1 222.2,347.1 222.2,353.3 219.1,353.3 219.1,356.4 226.9,356.4 226.9,344.1 "/>
<rect x="304" y="12.3" class="st1" width="7.7" height="12.3"/>
<rect x="304" y="109.5" class="st1" width="7.7" height="12.3"/>
<rect x="304" y="308.6" class="st1" width="10.8" height="1.5"/>
<polygon class="st1" points="304,49.3 304,52.4 307.1,52.4 307.1,58.6 304,58.6 304,61.7 311.7,61.7 311.7,49.3 "/>
<polygon class="st1" points="304,69.4 304,72.5 307.1,72.5 307.1,78.6 304,78.6 304,81.7 311.7,81.7 311.7,69.4 "/>
<polygon class="st1" points="304,89.4 304,92.5 307.1,92.5 307.1,98.7 304,98.7 304,101.8 311.7,101.8 311.7,89.4 "/>
<rect x="304" y="149.6" class="st1" width="7.7" height="12.3"/>
<polygon class="st1" points="304,129.6 304,132.6 307.1,132.6 307.1,138.8 304,138.8 304,141.9 311.7,141.9 311.7,129.6 "/>
<rect x="304" y="189.7" class="st1" width="7.7" height="12.3"/>
<polygon class="st1" points="304,169.7 304,172.8 307.1,172.8 307.1,178.9 304,178.9 304,182 311.7,182 311.7,169.7 "/>
<rect x="304" y="229.9" class="st1" width="7.7" height="12.3"/>
<polygon class="st1" points="304,209.8 304,212.9 307.1,212.9 307.1,219.1 304,219.1 304,222.1 311.7,222.1 311.7,209.8 "/>
<rect x="304" y="270" class="st1" width="7.7" height="12.3"/>
<rect x="304" y="322.5" class="st1" width="7.7" height="12.3"/>
<polygon class="st1" points="304,249.9 304,253 307.1,253 307.1,259.2 304,259.2 304,262.3 311.7,262.3 311.7,249.9 "/>
<polygon class="st1" points="304,344.1 304,347.1 307.1,347.1 307.1,353.3 304,353.3 304,356.4 311.7,356.4 311.7,344.1 "/>
<rect x="341" y="12.3" class="st1" width="7.7" height="12.3"/>
<rect x="341" y="109.5" class="st1" width="7.7" height="12.3"/>
<rect x="341" y="308.6" class="st1" width="10.8" height="1.5"/>
<polygon class="st1" points="341,49.3 341,52.4 344.1,52.4 344.1,58.6 341,58.6 341,61.7 348.8,61.7 348.8,49.3 "/>
<polygon class="st1" points="341,69.4 341,72.5 344.1,72.5 344.1,78.6 341,78.6 341,81.7 348.8,81.7 348.8,69.4 "/>
<polygon class="st1" points="341,89.4 341,92.5 344.1,92.5 344.1,98.7 341,98.7 341,101.8 348.8,101.8 348.8,89.4 "/>
<rect x="341" y="149.6" class="st1" width="7.7" height="12.3"/>
<polygon class="st1" points="341,129.6 341,132.6 344.1,132.6 344.1,138.8 341,138.8 341,141.9 348.8,141.9 348.8,129.6 "/>
<rect x="341" y="189.7" class="st1" width="7.7" height="12.3"/>
<polygon class="st1" points="341,169.7 341,172.8 344.1,172.8 344.1,178.9 341,178.9 341,182 348.8,182 348.8,169.7 "/>
<rect x="341" y="229.9" class="st1" width="7.7" height="12.3"/>
<polygon class="st1" points="341,209.8 341,212.9 344.1,212.9 344.1,219.1 341,219.1 341,222.1 348.8,222.1 348.8,209.8 "/>
<rect x="341" y="270" class="st1" width="7.7" height="12.3"/>
<rect x="341" y="322.5" class="st1" width="7.7" height="12.3"/>
<polygon class="st1" points="341,249.9 341,253 344.1,253 344.1,259.2 341,259.2 341,262.3 348.8,262.3 348.8,249.9 "/>
<polygon class="st1" points="341,344.1 341,347.1 344.1,347.1 344.1,353.3 341,353.3 341,356.4 348.8,356.4 348.8,344.1 "/>
<polygon class="st1" points="233,322.5 233,325.5 236.1,325.5 236.1,331.7 233,331.7 233,334.8 240.7,334.8 240.7,322.5 "/>
<polygon class="st1" points="233,342.5 233,345.6 236.1,345.6 236.1,351.8 233,351.8 233,354.9 240.7,354.9 240.7,342.5 "/>
<polygon class="st1" points="192.9,109.5 192.9,112.6 196,112.6 196,118.8 192.9,118.8 192.9,121.8 200.6,121.8 200.6,109.5 "/>
<polygon class="st1" points="192.9,188.2 192.9,191.3 196,191.3 196,197.5 192.9,197.5 192.9,200.5 200.6,200.5 200.6,188.2 "/>
<polygon class="st1" points="192.9,208.3 192.9,211.3 196,211.3 196,217.5 192.9,217.5 192.9,220.6 200.6,220.6 200.6,208.3 "/>
<polygon class="st1" points="192.9,248.4 192.9,251.5 196,251.5 196,257.6 192.9,257.6 192.9,260.7 200.6,260.7 200.6,248.4 "/>
<polygon class="st1" points="192.9,305.5 192.9,308.6 196,308.6 196,314.7 192.9,314.7 192.9,317.8 200.6,317.8 200.6,305.5 "/>
<polygon class="st1" points="192.9,322.5 192.9,325.5 196,325.5 196,331.7 192.9,331.7 192.9,334.8 200.6,334.8 200.6,322.5 "/>
<rect x="273.1" y="15.4" class="st1" width="7.7" height="12.3"/>
<rect x="273.1" y="35.4" class="st1" width="7.7" height="12.3"/>
<rect x="270.1" y="57" class="st1" width="10.8" height="1.5"/>
<rect x="270.1" y="155.8" class="st1" width="10.8" height="1.5"/>
<rect x="270.1" y="172.8" class="st1" width="10.8" height="1.5"/>
<polygon class="st1" points="273.1,70.9 273.1,74 276.2,74 276.2,80.2 273.1,80.2 273.1,83.3 280.9,83.3 280.9,70.9 "/>
<polygon class="st1" points="273.1,109.5 273.1,112.6 276.2,112.6 276.2,118.8 273.1,118.8 273.1,121.8 280.9,121.8 280.9,109.5 "/>
<polygon class="st1" points="273.1,188.2 273.1,191.3 276.2,191.3 276.2,197.5 273.1,197.5 273.1,200.5 280.9,200.5 280.9,188.2 "/>
<rect x="361.1" y="149.6" class="st1" width="7.7" height="12.3"/>
<rect x="361.1" y="169.7" class="st1" width="7.7" height="12.3"/>
<rect x="358" y="191.3" class="st1" width="10.8" height="1.5"/>
<rect x="358" y="290" class="st1" width="10.8" height="1.5"/>
<rect x="358" y="307" class="st1" width="10.8" height="1.5"/>
<polygon class="st1" points="361.1,205.2 361.1,208.3 364.2,208.3 364.2,214.4 361.1,214.4 361.1,217.5 368.8,217.5 368.8,205.2 "/>
<polygon class="st1" points="361.1,243.8 361.1,246.8 364.2,246.8 364.2,253 361.1,253 361.1,256.1 368.8,256.1 368.8,243.8 "/>
<polygon class="st1" points="361.1,322.5 361.1,325.5 364.2,325.5 364.2,331.7 361.1,331.7 361.1,334.8 368.8,334.8 368.8,322.5 "/>
<rect x="385.8" y="15.4" class="st1" width="7.7" height="12.3"/>
<rect x="412" y="12.3" class="st1" width="7.7" height="12.3"/>
<rect x="425.9" y="12.3" class="st1" width="7.7" height="12.3"/>
<rect x="425.9" y="49.3" class="st1" width="7.7" height="12.3"/>
<rect x="441.4" y="30.8" class="st1" width="7.7" height="12.3"/>
<rect x="441.4" y="50.9" class="st1" width="7.7" height="12.3"/>
<rect x="425.9" y="89.4" class="st1" width="7.7" height="12.3"/>
<rect x="441.4" y="109.5" class="st1" width="7.7" height="12.3"/>
<rect x="425.9" y="185.1" class="st1" width="7.7" height="12.3"/>
<rect x="412" y="109.5" class="st1" width="7.7" height="12.3"/>
<rect x="385.8" y="35.4" class="st1" width="7.7" height="12.3"/>
<rect x="385.8" y="228.3" class="st1" width="7.7" height="12.3"/>
<rect x="385.8" y="268.4" class="st1" width="7.7" height="12.3"/>
<rect x="385.8" y="288.5" class="st1" width="7.7" height="12.3"/>
<rect x="382.7" y="57" class="st1" width="10.8" height="1.5"/>
<rect x="424.4" y="75.5" class="st1" width="10.8" height="1.5"/>
<rect x="382.7" y="155.8" class="st1" width="10.8" height="1.5"/>
<rect x="382.7" y="172.8" class="st1" width="10.8" height="1.5"/>
<rect x="424.4" y="271.5" class="st1" width="10.8" height="1.5"/>
<rect x="412" y="308.6" class="st1" width="10.8" height="1.5"/>
<polygon class="st1" points="385.8,70.9 385.8,74 388.9,74 388.9,80.2 385.8,80.2 385.8,83.3 393.5,83.3 393.5,70.9 "/>
<polygon class="st1" points="412,49.3 412,52.4 415.1,52.4 415.1,58.6 412,58.6 412,61.7 419.8,61.7 419.8,49.3 "/>
<polygon class="st1" points="441.4,69.4 441.4,72.5 444.4,72.5 444.4,78.6 441.4,78.6 441.4,81.7 449.1,81.7 449.1,69.4 "/>
<polygon class="st1" points="441.4,129.6 441.4,132.6 444.4,132.6 444.4,138.8 441.4,138.8 441.4,141.9 449.1,141.9 449.1,129.6 "/>
<polygon class="st1" points="441.4,149.6 441.4,152.7 444.4,152.7 444.4,158.9 441.4,158.9 441.4,162 449.1,162 449.1,149.6 "/>
<polygon class="st1" points="441.4,87.9 441.4,91 444.4,91 444.4,97.1 441.4,97.1 441.4,100.2 449.1,100.2 449.1,87.9 "/>
<polygon class="st1" points="425.9,30.8 425.9,33.9 429,33.9 429,40 425.9,40 425.9,43.1 433.6,43.1 433.6,30.8 "/>
<rect x="425.9" y="129.6" class="st1" width="7.7" height="12.3"/>
<rect x="425.9" y="166.6" class="st1" width="7.7" height="12.3"/>
<polygon class="st1" points="425.9,148.1 425.9,151.2 429,151.2 429,157.3 425.9,157.3 425.9,160.4 433.6,160.4 433.6,148.1 "/>
<polygon class="st1" points="412,69.4 412,72.5 415.1,72.5 415.1,78.6 412,78.6 412,81.7 419.8,81.7 419.8,69.4 "/>
<polygon class="st1" points="412,89.4 412,92.5 415.1,92.5 415.1,98.7 412,98.7 412,101.8 419.8,101.8 419.8,89.4 "/>
<rect x="412" y="149.6" class="st1" width="7.7" height="12.3"/>
<polygon class="st1" points="412,129.6 412,132.6 415.1,132.6 415.1,138.8 412,138.8 412,141.9 419.8,141.9 419.8,129.6 "/>
<rect x="412" y="189.7" class="st1" width="7.7" height="12.3"/>
<polygon class="st1" points="412,169.7 412,172.8 415.1,172.8 415.1,178.9 412,178.9 412,182 419.8,182 419.8,169.7 "/>
<rect x="412" y="229.9" class="st1" width="7.7" height="12.3"/>
<rect x="425.9" y="226.8" class="st1" width="7.7" height="12.3"/>
<polygon class="st1" points="412,209.8 412,212.9 415.1,212.9 415.1,219.1 412,219.1 412,222.1 419.8,222.1 419.8,209.8 "/>
<polygon class="st1" points="441.4,209.8 441.4,212.9 444.4,212.9 444.4,219.1 441.4,219.1 441.4,222.1 449.1,222.1 449.1,209.8 "/>
<rect x="520.1" y="30.8" class="st1" width="7.7" height="12.3"/>
<rect x="520.1" y="50.9" class="st1" width="7.7" height="12.3"/>
<rect x="520.1" y="109.5" class="st1" width="7.7" height="12.3"/>
<polygon class="st1" points="520.1,69.4 520.1,72.5 523.1,72.5 523.1,78.6 520.1,78.6 520.1,81.7 527.8,81.7 527.8,69.4 "/>
<polygon class="st1" points="520.1,129.6 520.1,132.6 523.1,132.6 523.1,138.8 520.1,138.8 520.1,141.9 527.8,141.9 527.8,129.6 "/>
<polygon class="st1" points="520.1,149.6 520.1,152.7 523.1,152.7 523.1,158.9 520.1,158.9 520.1,162 527.8,162 527.8,149.6 "/>
<polygon class="st1" points="520.1,87.9 520.1,91 523.1,91 523.1,97.1 520.1,97.1 520.1,100.2 527.8,100.2 527.8,87.9 "/>
<polygon class="st1" points="520.1,209.8 520.1,212.9 523.1,212.9 523.1,219.1 520.1,219.1 520.1,222.1 527.8,222.1 527.8,209.8 "/>
<rect x="412" y="270" class="st1" width="7.7" height="12.3"/>
<rect x="425.9" y="246.8" class="st1" width="7.7" height="12.3"/>
<rect x="412" y="322.5" class="st1" width="7.7" height="12.3"/>
<rect x="425.9" y="285.4" class="st1" width="7.7" height="12.3"/>
<polygon class="st1" points="412,249.9 412,253 415.1,253 415.1,259.2 412,259.2 412,262.3 419.8,262.3 419.8,249.9 "/>
<polygon class="st1" points="412,344.1 412,347.1 415.1,347.1 415.1,353.3 412,353.3 412,356.4 419.8,356.4 419.8,344.1 "/>
<rect x="496.9" y="12.3" class="st1" width="7.7" height="12.3"/>
<rect x="496.9" y="109.5" class="st1" width="7.7" height="12.3"/>
<rect x="496.9" y="308.6" class="st1" width="10.8" height="1.5"/>
<polygon class="st1" points="496.9,49.3 496.9,52.4 500,52.4 500,58.6 496.9,58.6 496.9,61.7 504.6,61.7 504.6,49.3 "/>
<polygon class="st1" points="496.9,69.4 496.9,72.5 500,72.5 500,78.6 496.9,78.6 496.9,81.7 504.6,81.7 504.6,69.4 "/>
<polygon class="st1" points="496.9,89.4 496.9,92.5 500,92.5 500,98.7 496.9,98.7 496.9,101.8 504.6,101.8 504.6,89.4 "/>
<rect x="496.9" y="149.6" class="st1" width="7.7" height="12.3"/>
<polygon class="st1" points="496.9,129.6 496.9,132.6 500,132.6 500,138.8 496.9,138.8 496.9,141.9 504.6,141.9 504.6,129.6 "/>
<rect x="496.9" y="189.7" class="st1" width="7.7" height="12.3"/>
<polygon class="st1" points="496.9,169.7 496.9,172.8 500,172.8 500,178.9 496.9,178.9 496.9,182 504.6,182 504.6,169.7 "/>
<rect x="496.9" y="229.9" class="st1" width="7.7" height="12.3"/>
<polygon class="st1" points="496.9,209.8 496.9,212.9 500,212.9 500,219.1 496.9,219.1 496.9,222.1 504.6,222.1 504.6,209.8 "/>
<rect x="496.9" y="270" class="st1" width="7.7" height="12.3"/>
<rect x="496.9" y="322.5" class="st1" width="7.7" height="12.3"/>
<polygon class="st1" points="496.9,249.9 496.9,253 500,253 500,259.2 496.9,259.2 496.9,262.3 504.6,262.3 504.6,249.9 "/>
<polygon class="st1" points="496.9,344.1 496.9,347.1 500,347.1 500,353.3 496.9,353.3 496.9,356.4 504.6,356.4 504.6,344.1 "/>
<rect x="534" y="12.3" class="st1" width="7.7" height="12.3"/>
<rect x="534" y="109.5" class="st1" width="7.7" height="12.3"/>
<rect x="534" y="308.6" class="st1" width="10.8" height="1.5"/>
<polygon class="st1" points="534,49.3 534,52.4 537,52.4 537,58.6 534,58.6 534,61.7 541.7,61.7 541.7,49.3 "/>
<polygon class="st1" points="534,69.4 534,72.5 537,72.5 537,78.6 534,78.6 534,81.7 541.7,81.7 541.7,69.4 "/>
<polygon class="st1" points="534,89.4 534,92.5 537,92.5 537,98.7 534,98.7 534,101.8 541.7,101.8 541.7,89.4 "/>
<rect x="534" y="149.6" class="st1" width="7.7" height="12.3"/>
<polygon class="st1" points="534,129.6 534,132.6 537,132.6 537,138.8 534,138.8 534,141.9 541.7,141.9 541.7,129.6 "/>
<rect x="534" y="189.7" class="st1" width="7.7" height="12.3"/>
<polygon class="st1" points="534,169.7 534,172.8 537,172.8 537,178.9 534,178.9 534,182 541.7,182 541.7,169.7 "/>
<rect x="534" y="229.9" class="st1" width="7.7" height="12.3"/>
<polygon class="st1" points="534,209.8 534,212.9 537,212.9 537,219.1 534,219.1 534,222.1 541.7,222.1 541.7,209.8 "/>
<rect x="534" y="270" class="st1" width="7.7" height="12.3"/>
<rect x="534" y="322.5" class="st1" width="7.7" height="12.3"/>
<polygon class="st1" points="534,249.9 534,253 537,253 537,259.2 534,259.2 534,262.3 541.7,262.3 541.7,249.9 "/>
<polygon class="st1" points="534,344.1 534,347.1 537,347.1 537,353.3 534,353.3 534,356.4 541.7,356.4 541.7,344.1 "/>
<polygon class="st1" points="425.9,322.5 425.9,325.5 429,325.5 429,331.7 425.9,331.7 425.9,334.8 433.6,334.8 433.6,322.5 "/>
<polygon class="st1" points="425.9,342.5 425.9,345.6 429,345.6 429,351.8 425.9,351.8 425.9,354.9 433.6,354.9 433.6,342.5 "/>
<polygon class="st1" points="385.8,109.5 385.8,112.6 388.9,112.6 388.9,118.8 385.8,118.8 385.8,121.8 393.5,121.8 393.5,109.5 "/>
<polygon class="st1" points="385.8,188.2 385.8,191.3 388.9,191.3 388.9,197.5 385.8,197.5 385.8,200.5 393.5,200.5 393.5,188.2 "/>
<polygon class="st1" points="385.8,208.3 385.8,211.3 388.9,211.3 388.9,217.5 385.8,217.5 385.8,220.6 393.5,220.6 393.5,208.3 "/>
<polygon class="st1" points="385.8,248.4 385.8,251.5 388.9,251.5 388.9,257.6 385.8,257.6 385.8,260.7 393.5,260.7 393.5,248.4 "/>
<polygon class="st1" points="385.8,305.5 385.8,308.6 388.9,308.6 388.9,314.7 385.8,314.7 385.8,317.8 393.5,317.8 393.5,305.5 "/>
<polygon class="st1" points="385.8,322.5 385.8,325.5 388.9,325.5 388.9,331.7 385.8,331.7 385.8,334.8 393.5,334.8 393.5,322.5 "/>
<rect x="466" y="15.4" class="st1" width="7.7" height="12.3"/>
<rect x="466" y="35.4" class="st1" width="7.7" height="12.3"/>
<rect x="463" y="57" class="st1" width="10.8" height="1.5"/>
<rect x="463" y="155.8" class="st1" width="10.8" height="1.5"/>
<rect x="463" y="172.8" class="st1" width="10.8" height="1.5"/>
<polygon class="st1" points="466,70.9 466,74 469.1,74 469.1,80.2 466,80.2 466,83.3 473.8,83.3 473.8,70.9 "/>
<polygon class="st1" points="466,109.5 466,112.6 469.1,112.6 469.1,118.8 466,118.8 466,121.8 473.8,121.8 473.8,109.5 "/>
<polygon class="st1" points="466,188.2 466,191.3 469.1,191.3 469.1,197.5 466,197.5 466,200.5 473.8,200.5 473.8,188.2 "/>
<rect x="554" y="149.6" class="st1" width="7.7" height="12.3"/>
<rect x="554" y="169.7" class="st1" width="7.7" height="12.3"/>
<rect x="550.9" y="191.3" class="st1" width="10.8" height="1.5"/>
<rect x="550.9" y="290" class="st1" width="10.8" height="1.5"/>
<rect x="550.9" y="307" class="st1" width="10.8" height="1.5"/>
<polygon class="st1" points="554,205.2 554,208.3 557.1,208.3 557.1,214.4 554,214.4 554,217.5 561.7,217.5 561.7,205.2 "/>
<polygon class="st1" points="554,243.8 554,246.8 557.1,246.8 557.1,253 554,253 554,256.1 561.7,256.1 561.7,243.8 "/>
<polygon class="st1" points="554,322.5 554,325.5 557.1,325.5 557.1,331.7 554,331.7 554,334.8 561.7,334.8 561.7,322.5 "/>
<rect x="56.3" y="655.5" class="st2" width="827.6" height="2.6"/>
<path class="st2" d="M227.3,353.3v52l7,32c0,0-1,20,0,26s-1,16-7,16s-9,15-9,15s-2,6-7,7s-5,0-5,0l-4,10l-83,55l16,40
	c0,0,25-9,27-12s19,4,19-3s3-25,9-26s56-24,56-24s26-29,28-40s11-42,11-42l25,42v84l-4,45l44-6c0,0-4-28,0-32s10-52,6-58s2-33,0-37
	s-1-33-6-41s-35-90-35-90L227.3,353.3z"/>
<path class="st2" d="M312.3,628.3c0,0-15,25-5,28s29,0,31,0s38,1,38,1s24-5,24-12s-15-7-20-8s-36-13-36-13L312.3,628.3z"/>
<path class="st3" d="M123.9,567.5c0,0-28.9-3.8-27.7,6.5s11.5,26.6,12.3,28.4c0.5,1.2,6.9,17,10.9,27c2.9,7.4,7.3,14,12.8,19.7
	c3.9,3.9,8.2,7.1,11,5.9c6.4-2.8,0.5-16.5-0.6-21.5s-2.4-38.2-2.4-38.2L123.9,567.5z"/>
<path class="st4" d="M324.8,187.8l32-74c0,0-3-7-10-6c0,0-9.5-24.5-27.5-24.5c0,0-27-15-35,0c0,0-17,15-16,29s2,24,2,24s-16,2-13,10
	s4,8,0,11l-4,3c0,0-83,75-37,185l4,17v16c0,0,101,1,101,0s-2-7,2-11s4-10,4-10s-4-20-2-26s3-32-1-38s-2-54-2-54l9-17l-3-10l-3-10
	L324.8,187.8z"/>
<path class="st5" d="M316.3,388.3c0,0-12-33-11-39s-2-18-2-18l-4-81c0,0,17-72-21-84c0,0-9.6,4.2-17.5,17.7
	c-7.8,3.5-17.2,12.3-19.5,34.3c-4,39,14,139,23,156s15,29,15,29l9.4-4.2c0.4,0.8,0.6,1.2,0.6,1.2L316.3,388.3z"/>
<circle class="st6" cx="321.8" cy="175.8" r="3"/>
<rect x="320.8" y="175.8" class="st7" width="2" height="47"/>
<path class="st8" d="M285.8,391.8l8,17c0,0,18-6,18-9s-8-16-8-16L285.8,391.8z"/>
<path class="st4" d="M274.3,166.3c0,0-23,10-27,49s14,139,23,156c9,17,15,29,15,29l27-12c0,0-12-33-11-39s-2-18-2-18l-4-81
	C295.3,250.3,312.3,178.3,274.3,166.3z"/>
</svg>
