<?xml version="1.0" encoding="utf-8"?>
<!-- Generator: Adobe Illustrator 24.0.0, SVG Export Plug-In . SVG Version: 6.00 Build 0)  -->
<svg version="1.1" id="Layer_1" xmlns="http://www.w3.org/2000/svg" xmlns:xlink="http://www.w3.org/1999/xlink" x="0px" y="0px"
	 viewBox="0 0 2581.1 784.4" style="enable-background:new 0 0 2581.1 784.4;" xml:space="preserve">
<style type="text/css">
	.st0{fill:#FFFFFF;}
</style>
<path class="st0" d="M16.8,611.6V310.3h358.6v-17.7H16.8V17.7H398V0H0v629.3h401.4v-17.7L16.8,611.6L16.8,611.6z M724.8,176.3
	L576.1,381.7L430.8,176.3h-21.9l157,218.6L393.8,629.3H414l162.2-221.2L739,629.3h21L587.1,394.9l157.8-218.6L724.8,176.3
	L724.8,176.3z M810.5,784.4v-282h1.7c10.1,41.2,29.9,74.2,59.6,99.1c29.6,24.9,67.5,37.5,113.4,37.5c29.6,0,55.9-6.3,79-19
	c22.9-12.7,42.1-29.8,57.5-51.6c15.4-21.8,27.2-47,35.3-75.8c8.2-28.8,12.2-59,12.2-90.8c0-34.1-4.2-65.5-12.6-94.4
	c-8.3-28.8-20.5-53.7-36.6-75c-15.9-21.1-35.3-37.6-58-49.4c-22.7-11.7-48.3-17.7-76.8-17.7c-21.9,0-42.1,3.4-61,10.2
	c-18.8,6.7-35.5,16.2-50,28.6c-14.7,12.5-27.4,27.2-37.8,43.7c-10.6,16.8-18.8,35.1-24.4,55h-1.4V176.3h-16.7v608.1h16.7V784.4
	L810.5,784.4z M985.2,622.3c-52.6,0-94.9-19-126.8-56.9c-31.9-37.9-47.9-92.4-47.9-163.5c0-29.4,3.9-57.3,11.8-83.7
	s19.2-49.6,33.9-69.7c14.9-19.9,33.2-35.9,55.1-47.6c21.9-11.7,46.4-17.7,73.9-17.7c27.9,0,52.4,5.8,73.5,17.7
	c21,11.7,38.4,27.7,52.1,48c13.7,20.3,24.1,43.4,31,69.7c7,26.1,10.5,53.9,10.5,83.3c0,26.4-3.2,52.8-9.7,78.9
	c-6.4,26.1-16.4,49.6-29.8,70.5c-13.4,20.8-30.7,37.9-51.7,51.1C1040.2,615.7,1014.7,622.3,985.2,622.3L985.2,622.3z M1261.4,629.3
	V372.9c0-24.7,3.4-48.7,10.1-72.3c6.7-23.5,17.1-44.2,31-62.2c14.1-17.9,31.8-32.1,53.4-42.4s47.2-14.5,76.8-12.8v-17.7
	c-25.8-0.5-48.3,2.4-67.6,8.8c-19.3,6.5-35.9,15.3-50,26.4c-14.1,11.2-25.1,24.3-33.6,39.2c-8.3,14.9-14.7,31.2-18.5,48h-1.7V176.3
	h-16.8v453H1261.4L1261.4,629.3z M1453.8,406.4h361.1c1.1-31.1-1.9-61.1-8.8-89.9c-7-28.8-18.2-54.4-33.6-76.7
	c-15.4-22.3-35.3-40.3-59.6-53.7c-24.4-13.4-53.4-20.3-86.9-20.3c-24.1,0-47.5,5.3-70.5,15.8c-22.9,10.6-43.1,26-60.5,46.3
	s-31.3,45.1-42,74.5c-10.6,29.4-15.9,62.8-15.9,100.4c0,33.5,3.6,64.8,11,93.8s18.5,54.4,33.6,75.8c15.1,21.4,34.6,38,58.3,49.8
	c23.7,11.7,52.4,17.3,86.1,16.8c49.2,0,90.7-14.5,124.3-43.7c33.6-29.1,53.5-70.1,59.6-123h-16.8c-7.3,49.9-25.9,87.4-55.8,112.3
	c-29.9,25-67.6,37.5-113,37.5c-30.8,0-56.7-5.6-78.1-16.8c-21.3-11.2-38.6-26.4-52.1-45.8c-13.4-19.4-23.4-42.1-29.8-68.4
	C1457.8,465.2,1454.3,436.9,1453.8,406.4L1453.8,406.4z M1798,388.7h-344.3c1.7-31.7,7.2-60.2,16.8-85.5
	c9.5-25.2,21.9-46.9,37.3-64.8s33.4-31.6,53.7-40.9c20.4-9.4,42.5-14.1,65.9-14.1c27.9,0,52.6,5.4,73.9,16.4
	c21.3,10.8,39,25.7,53.4,44.5c14.3,18.8,25,40.7,32.3,65.6C1794.5,334.7,1798,361.1,1798,388.7L1798,388.7z M2163.4,310.3h16.8
	c0-50.5-14.1-87.2-42-110.2c-27.9-23-66-34.3-114.1-34.3c-26.8,0-49.5,3.6-68,10.6s-33.6,16.1-45.4,27.3
	c-11.8,11.2-20.2,23.5-25.1,37c-5,13.5-7.5,26.4-7.5,38.8c0,24.7,4.2,44.3,12.6,59c8.3,14.7,21.6,26.1,39.5,34.3
	c12.3,5.8,26.4,11.2,42,15.8c15.7,4.7,33.9,9.6,54.7,14.9c18.5,4.7,36.7,9.4,54.7,14.1c18,4.7,33.8,11,47.5,19s24.9,18.1,33.6,30.4
	s12.9,28.5,12.9,48.4c0,19.4-4.3,35.9-12.9,49.4c-8.6,13.4-19.9,24.7-33.2,33c-13.4,8.6-28.3,14.7-44.9,18.5
	c-16.5,3.8-32.6,5.7-48.3,5.7c-51,0-90-11.9-117.1-35.6c-27.2-23.8-40.8-61.2-40.8-112.3h-16.8c0,57,14.7,98.7,44.1,125.1
	c29.5,26.4,72.9,39.6,130.5,39.6c18.5,0,37-2.2,55.8-6.6c18.8-4.4,35.5-11.6,50.4-21.6c14.7-9.9,27.1-23.1,36.2-38.8
	c9.3-15.8,13.8-35.2,13.8-58.2c0-21.8-4-39.3-12.2-52.9c-8.2-13.5-18.8-24.7-31.9-33.5s-27.9-15.7-44.5-20.7
	c-16.6-5-33.3-9.9-50-14.5c-20.5-5.6-41.1-11.3-61.7-16.8c-17.6-4.7-33.9-10.3-49.1-16.8c-14.5-6.5-26.3-15.7-34.9-27.7
	s-12.9-29.2-12.9-51.6c0-4.1,1.1-11.5,3.4-22c2.3-10.6,7.5-21.3,15.9-32.2c8.3-10.8,21.3-20.6,38.6-29c17.4-8.6,41.2-12.8,71.5-12.8
	c20.8,0,39.7,2.4,56.6,7c16.9,4.7,31.8,12.2,44.1,22.4c12.3,10.3,21.9,23.4,28.6,39.2C2160,267.9,2163.4,287.3,2163.4,310.3
	L2163.4,310.3z M2552.1,310.3h16.8c0-50.5-14.1-87.2-42-110.2s-66-34.3-114.1-34.3c-26.8,0-49.5,3.6-68,10.6
	c-18.5,7-33.6,16.1-45.4,27.3c-11.8,11.2-20.2,23.5-25.1,37c-5.1,13.5-7.5,26.4-7.5,38.8c0,24.7,4.2,44.3,12.6,59
	c8.3,14.7,21.6,26.1,39.5,34.3c12.3,5.8,26.4,11.2,42,15.8c15.7,4.7,33.9,9.6,54.7,14.9c18.5,4.7,36.7,9.4,54.7,14.1
	c18,4.7,33.8,11,47.5,19s24.9,18.1,33.6,30.4s12.9,28.5,12.9,48.4c0,19.4-4.3,35.9-12.9,49.4c-8.6,13.4-19.9,24.7-33.2,33
	c-13.4,8.6-28.3,14.7-44.9,18.5c-16.5,3.8-32.6,5.7-48.3,5.7c-51,0-90-11.9-117.1-35.6c-27.2-23.8-40.8-61.2-40.8-112.3h-17.1
	c0,57,14.7,98.7,44.1,125.1c29.5,26.4,72.9,39.6,130.5,39.6c18.5,0,37-2.2,55.8-6.6c18.8-4.4,35.5-11.6,50.4-21.6
	c14.7-9.9,27.1-23.1,36.2-38.8c9.3-15.8,13.8-35.2,13.8-58.2c0-21.8-4-39.3-12.2-52.9c-8.2-13.5-18.8-24.7-31.9-33.5
	s-27.9-15.7-44.5-20.7c-16.6-5-33.3-9.9-50-14.5c-20.5-5.6-41.1-11.3-61.7-16.8c-17.7-4.7-33.9-10.3-49.1-16.8
	c-14.5-6.5-26.3-15.7-34.9-27.7s-12.9-29.2-12.9-51.6c0-4.1,1.1-11.5,3.4-22c2.3-10.6,7.5-21.3,15.9-32.2
	c8.3-10.8,21.3-20.6,38.6-29c17.4-8.6,41.2-12.8,71.5-12.8c20.8,0,39.7,2.4,56.6,7c17,4.7,31.8,12.2,44.1,22.4s21.9,23.4,28.6,39.2
	C2548.9,267.9,2552.1,287.3,2552.1,310.3L2552.1,310.3z"/>
</svg>
