<?xml version="1.0" encoding="utf-8"?>
<!-- Generator: Adobe Illustrator 24.0.0, SVG Export Plug-In . SVG Version: 6.00 Build 0)  -->
<svg version="1.1" id="Layer_1" xmlns="http://www.w3.org/2000/svg" xmlns:xlink="http://www.w3.org/1999/xlink" x="0px" y="0px"
	 viewBox="0 0 2500 728" style="enable-background:new 0 0 2500 728;" xml:space="preserve">
<style type="text/css">
	.st0{fill:#FFFFFF;}
</style>
<path class="st0" d="M17.4,564.8V286.6h370.8v-16.3H17.4V16.5h394.1V0.2H0v580.9h415v-16.3L17.4,564.8L17.4,564.8z M749.3,162.9
	L595.6,352.5L445.4,162.9h-22.6l162.3,201.8L407.1,581.1H428l167.6-204.2l168.4,204.2h21.7L606.9,364.7l163.2-201.8L749.3,162.9
	L749.3,162.9z M837.9,724.3V464h1.7c10.5,38,30.9,68.5,61.7,91.5c30.6,23,69.8,34.6,117.2,34.6c30.6,0,57.8-5.8,81.6-17.5
	c23.7-11.7,43.5-27.5,59.4-47.6c15.9-20.1,28.1-43.4,36.5-70c8.4-26.6,12.6-54.5,12.6-83.8c0-31.5-4.4-60.5-13-87.1
	c-8.6-26.6-21.2-49.6-37.8-69.2c-16.5-19.5-36.5-34.7-59.9-45.6c-23.5-10.8-49.9-16.3-79.4-16.3c-22.6,0-43.5,3.1-63,9.4
	c-19.4,6.2-36.6,15-51.7,26.4c-15.2,11.5-28.3,25.1-39.1,40.3c-11,15.5-19.4,32.4-25.2,50.8H838v-117h-17.4v561.3h17.3V724.3z
	 M1018.5,574.6c-54.4,0-98.1-17.5-131.1-52.5c-33-35-49.5-85.3-49.5-150.9c0-27.1,4.1-52.9,12.2-77.3c8.1-24.4,19.9-45.8,35.1-64.3
	c15.4-18.4,34.3-33.1,56.9-43.9c22.6-10.8,48-16.3,76.4-16.3c28.9,0,54.2,5.4,76,16.3c21.7,10.8,39.7,25.6,53.8,44.3
	c14.2,18.7,24.9,40.1,32.1,64.3c7.3,24.1,10.9,49.8,10.9,76.9c0,24.4-3.3,48.7-10,72.8c-6.6,24.1-17,45.8-30.8,65.1
	c-13.9,19.2-31.7,35-53.4,47.2C1075.3,568.5,1049.1,574.6,1018.5,574.6L1018.5,574.6z M1304.1,581.1V344.4c0-22.8,3.5-45,10.5-66.7
	c6.9-21.7,17.6-40.8,32.1-57.4c14.5-16.5,32.9-29.6,55.2-39.1s48.8-13.4,79.4-11.8v-16.3c-26.7-0.5-49.9,2.2-69.9,8.1
	c-20,6-37.1,14.1-51.7,24.4c-14.5,10.3-26,22.4-34.7,36.2c-8.6,13.8-15.2,28.8-19.1,44.3h-1.7V162.9h-17.4v418.2H1304.1
	L1304.1,581.1z M1502.9,375.3h373.3c1.2-28.7-1.9-56.4-9.1-83c-7.3-26.6-18.8-50.2-34.7-70.8c-15.9-20.6-36.5-37.2-61.7-49.6
	c-25.2-12.4-55.2-18.7-89.9-18.7c-24.9,0-49.2,4.9-72.9,14.6c-23.7,9.8-44.6,24-62.5,42.7s-32.4,41.6-43.4,68.8
	c-11,27.1-16.5,58-16.5,92.7c0,30.9,3.7,59.8,11.3,86.6s19.1,50.2,34.7,70c15.6,19.8,35.8,35.1,60.3,46c24.5,10.8,54.2,16,89,15.5
	c50.9,0,93.8-13.4,128.5-40.3c34.7-26.9,55.3-64.7,61.7-113.5h-17.4c-7.6,46.1-26.8,80.7-57.7,103.7
	c-30.9,23.1-69.9,34.6-116.8,34.6c-31.8,0-58.7-5.2-80.8-15.5c-22-10.3-39.9-24.4-53.8-42.3c-13.9-17.9-24.1-38.9-30.8-63.1
	C1507.1,429.6,1503.5,403.5,1502.9,375.3L1502.9,375.3z M1858.9,359H1503c1.7-29.3,7.5-55.6,17.4-78.9c9.8-23.3,22.7-43.3,38.6-59.8
	c15.9-16.5,34.5-29.2,55.6-37.8c21.1-8.7,43.9-13,68.2-13c28.9,0,54.4,5,76.4,15.1c22,10,40.3,23.7,55.2,41.1
	c14.7,17.4,25.9,37.6,33.4,60.6C1855.2,309.2,1858.9,333.5,1858.9,359L1858.9,359z M2236.6,286.6h17.4c0-46.6-14.5-80.5-43.4-101.7
	c-28.9-21.2-68.3-31.7-118-31.7c-27.7,0-51.2,3.3-70.3,9.8s-34.7,14.9-46.9,25.2s-20.8,21.7-26,34.2s-7.8,24.4-7.8,35.8
	c0,22.8,4.4,40.9,13,54.5s22.3,24.1,40.8,31.7c12.7,5.4,27.2,10.3,43.4,14.6c16.2,4.3,35,8.9,56.5,13.8c19.1,4.3,37.9,8.7,56.5,13
	c18.6,4.3,34.9,10.2,49.1,17.5c14.2,7.3,25.7,16.7,34.7,28.1c9,11.4,13.4,26.3,13.4,44.7c0,17.9-4.5,33.1-13.4,45.6
	c-8.9,12.4-20.6,22.8-34.3,30.5c-13.9,7.9-29.3,13.6-46.4,17.1s-33.7,5.3-49.9,5.3c-52.7,0-93.1-11-121.1-32.9
	c-28.1-22-42.2-56.5-42.2-103.7h-17.4c0,52.6,15.2,91.1,45.6,115.5s75.3,36.6,135,36.6c19.1,0,38.3-2,57.7-6.1s36.7-10.7,52.1-19.9
	c15.2-9.1,28-21.3,37.4-35.8c9.6-14.6,14.3-32.5,14.3-53.7c0-20.1-4.2-36.3-12.6-48.8c-8.4-12.5-19.4-22.8-33-30.9
	c-13.6-8.1-28.9-14.5-46-19.1c-17.2-4.6-34.4-9.1-51.7-13.4c-21.2-5.2-42.5-10.4-63.8-15.5c-18.2-4.3-35.1-9.5-50.8-15.5
	c-15-6-27.1-14.5-36.1-25.6c-9-11.1-13.4-27-13.4-47.6c0-3.8,1.2-10.6,3.5-20.3c2.3-9.8,7.8-19.7,16.5-29.7c8.6-10,22-19,39.9-26.8
	c17.9-7.9,42.6-11.8,73.9-11.8c21.5,0,41,2.2,58.6,6.5s32.9,11.3,45.6,20.7c12.7,9.5,22.6,21.6,29.6,36.2
	C2233.1,247.5,2236.6,265.4,2236.6,286.6L2236.6,286.6z M2638.5,286.6h17.4c0-46.6-14.5-80.5-43.4-101.7s-68.3-31.7-118-31.7
	c-27.7,0-51.2,3.3-70.3,9.8c-19.1,6.5-34.7,14.9-46.9,25.2c-12.2,10.3-20.8,21.7-26,34.2c-5.2,12.5-7.8,24.4-7.8,35.8
	c0,22.8,4.4,40.9,13,54.5s22.3,24.1,40.8,31.7c12.7,5.4,27.2,10.3,43.4,14.6c16.2,4.3,35,8.9,56.5,13.8c19.1,4.3,37.9,8.7,56.5,13
	s34.9,10.2,49.1,17.5s25.7,16.7,34.7,28.1s13.4,26.3,13.4,44.7c0,17.9-4.5,33.1-13.4,45.6c-8.9,12.4-20.6,22.8-34.3,30.5
	c-13.9,7.9-29.3,13.6-46.4,17.1c-17.1,3.5-33.7,5.3-49.9,5.3c-52.7,0-93.1-11-121.1-32.9c-28.1-22-42.2-56.5-42.2-103.7H2326
	c0,52.6,15.2,91.1,45.6,115.5s75.3,36.6,135,36.6c19.1,0,38.3-2,57.7-6.1c19.4-4.1,36.7-10.7,52.1-19.9c15.2-9.1,28-21.3,37.4-35.8
	c9.6-14.6,14.3-32.5,14.3-53.7c0-20.1-4.2-36.3-12.6-48.8s-19.4-22.8-33-30.9c-13.6-8.1-28.9-14.5-46-19.1
	c-17.2-4.6-34.4-9.1-51.7-13.4c-21.2-5.2-42.5-10.4-63.8-15.5c-18.3-4.3-35.1-9.5-50.8-15.5c-15-6-27.1-14.5-36.1-25.6
	c-9-11.1-13.4-27-13.4-47.6c0-3.8,1.2-10.6,3.5-20.3c2.3-9.8,7.8-19.7,16.5-29.7c8.6-10,22-19,39.9-26.8
	c17.9-7.9,42.6-11.8,73.9-11.8c21.5,0,41,2.2,58.6,6.5s32.9,11.3,45.6,20.7s22.6,21.6,29.6,36.2
	C2635.1,247.5,2638.5,265.4,2638.5,286.6L2638.5,286.6z"/>
</svg>
