<?xml version="1.0" encoding="utf-8"?>
<!-- Generator: Adobe Illustrator 24.0.0, SVG Export Plug-In . SVG Version: 6.00 Build 0)  -->
<svg version="1.1" id="Layer_1" xmlns="http://www.w3.org/2000/svg" xmlns:xlink="http://www.w3.org/1999/xlink" x="0px" y="0px"
	 viewBox="0 0 512 146" style="enable-background:new 0 0 512 146;" xml:space="preserve">
<style type="text/css">
	.st0{fill-rule:evenodd;clip-rule:evenodd;fill:#8E714E;}
	.st1{fill-rule:evenodd;clip-rule:evenodd;fill:#FFFFFF;}
	.st2{fill-rule:evenodd;clip-rule:evenodd;fill:#A6A385;}
	.st3{fill-rule:evenodd;clip-rule:evenodd;fill:#499D4A;}
	.st4{fill-rule:evenodd;clip-rule:evenodd;fill:#58AA50;}
</style>
<g>
	<g>
		<path class="st0" d="M476.7,53.9c-0.5,0.1-0.9,1.4-0.9,2.1c-0.1,4.6-0.2,16.8-0.2,25c0,0.2,0.3,0.7,0.6,0.7
			c1.4,0.1,4.7,0.2,7.6,0.2c4,0,6.3-0.7,7.6-1.4c3.3-2.1,4.9-6.6,4.9-11.4c0-11.2-6.3-15.4-15.6-15.4
			C479.9,53.5,478.1,53.5,476.7,53.9L476.7,53.9L476.7,53.9z M500.5,105.1c0-11.3-6.7-17.6-18.9-17.6c-0.6,0-4.4-0.1-5.4,0.1
			c-0.3,0.1-0.6,0.4-0.6,0.7c0,8.2-0.1,21.1,0.2,26.1c0.2,2.2,1.5,5.2,3,6.2c1.7,1.1,5.4,1.4,8,1.4
			C494.2,122,500.5,116.9,500.5,105.1L500.5,105.1L500.5,105.1z M457.9,47.6c0.9,0,3.7,0.4,10.8,0.4c6.7,0,12.1-0.2,18.6-0.2
			c8,0,19.1,3.6,19.1,18.5c0,7.3-4.2,13.2-9.6,16c-0.3,0.1-0.3,0.4,0,0.5c7.8,2.4,14.6,8.3,14.6,19.6c0,11.1-5.5,18-13.6,22.4
			c-4.9,2.6-11,3.6-17.2,3.6c-4.7,0-17.3-0.7-24.4-0.5c-0.7-0.4,0.6-4.5,1.3-5.2c1.7-0.1,3-0.2,4.7-0.9c2.5-0.7,2.8-1.7,3.1-6.5
			c0.2-4,0.2-18.3,0.2-28.3c0-13.9,0.1-23.2,0-27.8c-0.1-3.6-1.1-4.7-3.1-5.3c-1.6-0.4-4.2-0.7-6.3-1.1
			C455.8,51.9,457.3,48.1,457.9,47.6L457.9,47.6L457.9,47.6z M404.6,118.9c2.2,2.2,6.6,3.1,10.4,3.1c5,0,10-1.1,14.8-6.6
			c4.9-5.5,8.3-14,8.3-27.5c0-12.9-4-23.5-12.1-29.7c-4.6-3.6-10.5-5.1-17.3-5.1c-2,0-4,0.1-5.2,0.7c-0.3,0.2-0.9,1.2-0.9,1.9
			c-0.2,2.2-0.2,20-0.2,30.3c0,10.7,0,25.6,0.2,27.3C402.6,115,403.3,117.8,404.6,118.9L404.6,118.9L404.6,118.9z M383.7,47.6
			c1.8,0,8.5,0.4,11.7,0.4c5.8,0,10-0.4,20.9-0.4c9.2,0,17,3.1,22.5,8.9c6.7,7.2,10.2,17.1,10.2,29.3c0,17.3-6.4,27.3-12.7,33
			c-6.4,5.8-14.7,9.3-26.5,9.3c-6.3,0-17.1-0.2-26-0.4h-0.1c-0.5-1,0.7-5.1,1.5-5.2c2.4-0.4,3-0.5,4.2-1c1.9-0.9,2.3-2.2,2.6-6.5
			c0.3-8,0.2-17.4,0.2-28.2c0-7.7,0.1-22.7-0.1-27.5c-0.3-4-1.7-5.1-4.4-5.7c-1.4-0.4-3.2-0.7-5.8-1.1
			C381.6,51.8,383.2,48.2,383.7,47.6L383.7,47.6L383.7,47.6z"/>
		<path class="st1" d="M272,123.4c-2.3-0.4-4-0.7-6-2c-0.3-0.2-0.7-1.4-0.7-1.9c-0.2-4-0.2-15.5-0.2-23.1c0-6.2-0.8-11.6-3-15.4
			c-2.5-4.3-6.1-6.8-10.7-6.8c-4.1,0-9.5,3.5-14,8.2c-0.1,0.1-0.8,0.9-0.7-0.4c0-1.2,0.2-3.7,0.3-5.5c0.1-1.6-0.6-2.4-0.6-2.4
			c-3,1.9-11.3,4.2-14.3,4.6c-2.2,0.6-2.8,3.2-0.5,4.1h0.1c2.5,0.9,4.2,2,5.4,3c0.9,0.9,0.8,2.2,0.8,3.2c0.1,8.6,0.1,21.7-0.2,28.9
			c-0.1,2.9-0.7,3.9-2.4,4.3l0.2-0.1c-1.3,0.4-2.3,0.7-3.9,0.9c-0.6,0.7-0.6,4.3,0,5.2c1,0,6.4-0.4,10.8-0.4c6.1,0,9.2,0.4,10.8,0.4
			c0.6-0.9,0.8-4.3,0.5-5.2c-1.8-0.1-3-0.4-4.2-0.7c-1.7-0.5-2.1-1.5-2.2-3.9c-0.2-6.1-0.2-18.9-0.2-27.6c0-2.4,0.6-3.6,1.1-4.2
			c2.1-2.2,5.5-3.9,8.6-3.9c3,0,4.9,1.1,6.4,2.6c2,2.1,2.7,5.1,3,7.2c0.5,5,0.3,14.7,0.3,23.1c0,4.6-0.3,5.7-1.7,6.3
			c-0.6,0.4-2.3,0.7-4.2,1c-0.6,0.7-0.5,4.3,0,5.2c2.7,0,5.8-0.4,10.4-0.4c5.7,0,9.4,0.4,10.9,0.4
			C272.2,127.6,272.4,124.2,272,123.4L272,123.4L272,123.4z M297.6,79.5c-4.9,0-7.9,4.7-7.9,12.1c0,7.5,2.7,16,10.2,16
			c1.3,0,3.7-0.7,4.8-2.2c1.8-2.1,3-6.2,3-10.6C307.7,85.2,303.9,79.5,297.6,79.5L297.6,79.5L297.6,79.5z M296.9,130.2
			c-1.8,0-3.1,0.7-4,1.2c-3.9,3.1-5.6,6.1-5.6,9.7c0,3.4,1,6,3.2,8.2c2.7,2.9,6.4,4.2,11.1,4.2c9.4,0,13.6-6.3,13.6-12.5
			c0-4.3-1.8-7.2-5.4-8.8C307.3,130.9,302.6,130.2,296.9,130.2L296.9,130.2L296.9,130.2z M297.6,160c-5.6,0-9.7-1.5-13.2-4.8
			c-3.4-3.2-4.9-8.1-4.9-11.3c0-0.9,0.2-3.5,1.8-5.7c1-1.4,3.2-4,8.5-8.4c0.2-0.1,0.3-0.2,0.3-0.5c0-0.2-0.2-0.5-0.4-0.6
			c-4.3-2.1-5.6-5.3-6-7.2v-0.2c-0.1-0.7-0.3-1.4,0.6-2.1c0.6-0.6,1.6-1.2,2.6-2.1c1.6-1.1,3.2-2.4,4.2-3.5c0.2-0.2,0.2-0.5,0.2-0.7
			s-0.2-0.5-0.4-0.6c-6.5-2.6-9.7-8.6-9.7-17.5c0-5.8,2.1-11.2,5.9-14.4c2.6-2.5,9-5.6,13.3-5.6h0.3c4.3,0.1,6.7,1.2,10.2,2.7
			c1.8,0.7,3.6,1.1,6,1.1c3.6,0,5.2-1.4,6.5-3c0.1,0.2,0.3,0.7,0.4,2.2c0.1,1.5-0.3,3.7-1.2,5.2c-0.7,1.2-2.4,2.2-4.1,2.2H318
			c-1.7-0.2-2.4-0.5-2.4-0.5l-0.4,0.2c-0.1,0.2,0,0.5,0.1,0.7l0.1,0.2c0.2,1,0.6,4.1,0.6,5c0,9.4-3,13.5-6.3,16.6
			c-3.1,2.9-6.7,4.7-10.8,5.2c-0.1,0-0.5,0-1.3,0.1c-0.5,0-1.1,0.1-1.2,0.1h-0.1c-0.7,0.2-2.6,1.4-2.6,3.4c0,1.7,0.8,3.7,4.8,4.1
			c0.8,0.1,1.7,0.1,2.6,0.2c5.3,0.5,11.8,1,14.9,2.2c4.2,2,6.9,6.7,6.9,12.3c0,8.4-4.9,16.4-13,21.4
			C305.9,158.9,301.9,160,297.6,160L297.6,160L297.6,160z M350.2,80.1c-1.9,0-3.7,0.6-5,1.7c-3.6,2.7-5.4,8.2-5.4,16.3
			c0,15,6.1,25.6,14.8,25.6c2.6,0,4.6-0.9,6.4-2.7c2.7-2.7,4.1-8.2,4.1-15.9C365,90.1,359,80.1,350.2,80.1L350.2,80.1L350.2,80.1z
			 M351.9,129.2c-15.7,0-21.3-14.3-21.3-27.7c0-9.4,3-16.6,9.1-21.7c4.3-3.4,9.5-5.2,14.1-5.2c12,0,20.4,10.7,20.4,26
			c0,10.4-3.3,18.6-9.7,23.7C361.5,126.8,356.2,129.2,351.9,129.2L351.9,129.2L351.9,129.2z M187.4,80.1c-1.9,0-3.7,0.6-5,1.7
			c-3.6,2.7-5.4,8.2-5.4,16.3c0,15,6.1,25.6,14.8,25.6c2.6,0,4.6-0.9,6.4-2.7c2.7-2.7,4.1-8.2,4.1-15.9
			C202.2,90.1,196.3,80.1,187.4,80.1L187.4,80.1L187.4,80.1z M189.1,129.2c-15.7,0-21.3-14.3-21.3-27.7c0-9.4,3-16.6,9.1-21.7
			c4.3-3.4,9.5-5.2,14.1-5.2c12,0,20.4,10.7,20.4,26c0,10.4-3.3,18.6-9.7,23.7C198.8,126.8,193.5,129.2,189.1,129.2L189.1,129.2
			L189.1,129.2z M83.6,128.1c-0.2-0.4-0.4-1.4-0.3-2.6c0-0.9,0.2-1.5,0.3-1.7c1.9-0.4,3-0.7,4.1-1c1.8-0.6,2.6-1.9,2.7-4.7
			c0.3-6.8,0.3-20,0.2-28.9v-0.2c0-1,0-2.2-1-3.2c-1.6-1.2-3.3-2.2-5.6-3.1c-0.8-0.4-1.4-0.9-1.3-1.6c0-0.7,0.6-1.5,1.8-1.7
			c3-0.4,11-2.7,14.1-4.5c0.2,0.2,0.5,0.9,0.5,1.9L99,77.8c-0.1,1.2-0.2,2.7-0.2,4.2c0,0.5,0.4,0.7,0.7,0.7c0.2,0,0.4-0.1,0.6-0.2
			c5.9-5.7,11.3-7.8,14-7.8c4.5,0,8,2.6,10.7,8.2c0.2,0.4,0.4,0.5,0.6,0.5s0.5-0.1,0.6-0.4c5.4-5.2,10.9-8.2,14.5-8.2
			c8.6,0,13.7,8,13.7,21.4c0,3.7,0,8.7-0.1,13.2c0,4-0.1,7.7-0.1,10.3c0,0.6,0.6,2.4,1.7,2.7c1.3,0.7,3,1.1,5.4,1.6h0.1
			c0.2,0.7-0.2,3.7-0.6,4.3c-0.6,0-1.4,0-2.3-0.1c-1.8-0.1-4.2-0.2-7-0.2c-5.7,0-8.7,0.1-11.5,0.4c-0.2-0.9-0.3-3.7,0-4.3
			c1.7-0.4,2.5-0.7,3.5-1c1.8-0.7,2.3-1.7,2.4-4.7c0-2.2,0.4-20.7-0.2-25.2c-0.6-4.6-3.3-9.9-9.4-9.9c-2.3,0-5.9,1.1-9.4,4.5
			c-0.2,0.2-0.4,0.7-0.4,1.1v0.1c0.4,2.4,0.4,5.2,0.4,9.4v7.5c0,5.2-0.1,9.9,0,13.7c0,2.5,1.2,3.1,2.2,3.6c0.6,0.1,0.9,0.2,1.4,0.4
			c0.8,0.2,1.7,0.5,3,0.7c0.2,0.5,0.2,2-0.1,3.2c-0.1,0.7-0.3,1-0.4,1.1c-3.1-0.1-6.4-0.2-11.1-0.2c-1.4,0-3.8,0.1-5.8,0.1
			c-1.7,0-3.2,0.1-4.2,0.1c-0.1-0.2-0.3-1-0.3-2.2c0-1,0.2-1.9,0.4-2.1c0.5-0.1,0.8-0.2,1.3-0.2c1.1-0.2,2-0.5,3-0.7
			c1.6-0.6,2.1-1.6,2.2-4.1c0.3-5.7,0.6-22.1-0.1-26.2c-1.1-6.7-4.2-9.9-9-9.9c-2.9,0-6.5,1.7-9.4,4.5c-0.5,0.5-0.8,1.6-0.8,2.6v6.7
			c0,8.2,0,18.5,0.1,23c0.1,1.4,0.5,3,2.6,3.6c0.5,0.1,1.2,0.4,2.1,0.5l1.7,0.4c0.2,0.7,0.1,3.5-0.3,4.3c-0.9,0-2-0.1-3.3-0.1
			c-1.9-0.1-4.4-0.2-7.2-0.2c-3.2,0-5.5,0.1-7.4,0.2C85.7,128.1,84.7,128.1,83.6,128.1L83.6,128.1L83.6,128.1z"/>
		<g>
			<path class="st1" d="M35.1,155.5l-3.8-1.6c0,0,0.5-24-6.5-25.7c-4.6-6.7,0.7-282,17.3-0.9c0,0-5.7,3.6-6.7,9.7
				C34.3,143,35.1,155.5,35.1,155.5L35.1,155.5L35.1,155.5z"/>
			<path class="st2" d="M35.1,155.5l-3.8-1.6c0,0,0.5-24-6.5-25.7c-4.6-6.7,0.7-282,17.3-0.9c0,0-5.7,3.6-6.7,9.7
				C34.3,143,35.1,155.5,35.1,155.5L35.1,155.5L35.1,155.5z"/>
			<path class="st1" d="M37.1,132.4c0,0,33.1-27.1,25.4-83.4C55,8.1,37.4-5.3,35.4-10.4c-2.1-3.7-4.2-10.1-4.2-10.1l1.4,113.8
				C32.7,93.4,29.8,128.2,37.1,132.4"/>
			<path class="st3" d="M37.1,132.4c0,0,33.1-27.1,25.4-83.4C55,8.1,37.4-5.3,35.4-10.4c-2.1-3.7-4.2-10.1-4.2-10.1l1.4,113.8
				C32.7,93.4,29.8,128.2,37.1,132.4"/>
			<path class="st1" d="M29.3,133.9c0,0-31.1-26.3-29.3-72.8S23.8-8.2,28-12.3c2.8-3.7,2.9-5.1,3-8.7c1.9,5.2,1.6,77.1,1.8,85.6
				C33.8,97.3,31.5,127.7,29.3,133.9L29.3,133.9L29.3,133.9z"/>
			<path class="st4" d="M29.3,133.9c0,0-31.1-26.3-29.3-72.8S23.8-8.2,28-12.3c2.8-3.7,2.9-5.1,3-8.7c1.9,5.2,1.6,77.1,1.8,85.6
				C33.8,97.3,31.5,127.7,29.3,133.9L29.3,133.9L29.3,133.9z"/>
		</g>
	</g>
</g>
</svg>
