<?xml version="1.0" encoding="utf-8"?>
<!-- Generator: Adobe Illustrator 24.0.0, SVG Export Plug-In . SVG Version: 6.00 Build 0)  -->
<svg version="1.1" id="Layer_1" xmlns="http://www.w3.org/2000/svg" xmlns:xlink="http://www.w3.org/1999/xlink" x="0px" y="0px"
	 viewBox="0 0 120 60" style="enable-background:new 0 0 120 60;" xml:space="preserve">
<style type="text/css">
	.st0{fill:#FFFFFF;}
</style>
<path class="st0" d="M40,41.8v-23h1.3v3.6c0.1-0.2,0.3-0.3,0.4-0.5c1-2.2,3.2-3.5,5.7-3.5c2.8-0.1,5.2,1,6.5,3.5
	c1.8,3.2,1.9,7,0.3,10.3c-1.3,2.8-4.4,4.3-7.8,3.7c-2.1-0.2-4-1.4-5-3.3v9.2L40,41.8z M41.3,26.9l0.3,2.7c0.5,3.1,2.3,4.9,5.2,5.2
	c2.8,0.5,5.5-1.1,6.5-3.7c1.1-2.6,1-5.6-0.2-8.2c-1-2.3-3.5-3.7-6.1-3.4c-2.4,0.2-4.4,1.8-5,4.1C41.6,24.7,41.4,25.8,41.3,26.9
	L41.3,26.9z M80.7,30c-0.4,3.4-3.2,5.9-6.6,6c-5.2,0.3-7.7-3.2-8.1-7.2c-0.3-2.2,0.1-4.4,1-6.4c1.3-2.8,4.3-4.4,7.4-4
	c2.9,0.2,5.4,2.3,6,5.2c0.3,1.3,0.5,2.5,0.6,3.8H67.4c-0.3,3.6,1.7,6.6,4.5,7.3c3.5,0.8,6.4-0.6,7.5-3.9C79.6,29.9,80,29.8,80.7,30
	L80.7,30z M67.4,26.2h12.3c-0.1-3.9-2.5-6.7-5.8-6.7C70.2,19.4,67.5,22.1,67.4,26.2z M83.3,30.1h1.2c0.1,1.8,1.2,3.4,2.8,4.2
	c2.1,0.9,4.4,0.9,6.5-0.2c1.1-0.5,1.8-1.6,1.7-2.9c0.1-1.2-0.7-2.2-1.8-2.6c-1.3-0.5-2.7-0.8-4.1-1.2c-1.4-0.4-2.8-0.9-4.1-1.5
	c-2.2-1.1-2.3-5.2,0.2-6.5c2.6-1.4,5.7-1.5,8.3-0.1c1.6,0.9,2.5,2.7,2.2,4.5h-1c0,0-0.1-0.1-0.1-0.1c-0.1-3.3-2.9-4.3-5.9-4
	c-0.9,0.1-1.8,0.4-2.6,0.8c-1,0.5-1.6,1.5-1.5,2.6c0,1.1,0.7,2,1.7,2.4c1.3,0.5,2.7,0.8,4,1.2l3.3,0.9c1.5,0.5,2.6,1.9,2.6,3.5
	c0.3,1.7-0.6,3.5-2.2,4.3c-2.8,1.6-7.5,1.2-9.6-0.8C83.9,33,83.3,31.6,83.3,30.1L83.3,30.1z M112.1,23.7h-1.1c0-0.2-0.1-0.3-0.1-0.4
	c0-1.7-1.3-3.2-3-3.6c-1.6-0.5-3.3-0.4-4.8,0.2c-1.2,0.4-2.1,1.5-2.1,2.8c0,1.3,0.8,2.4,2,2.7l5.2,1.3c0.6,0.1,1.1,0.3,1.7,0.5
	c1.7,0.6,2.8,2.1,2.8,3.9c0.1,1.8-1,3.4-2.6,4c-2.4,1.1-5.2,1.1-7.7,0.1c-2-0.9-3.3-2.9-3.2-5.2h1.1c0.4,2,1.8,3.7,3.7,4.5
	s4,0.6,5.8-0.5c1.1-0.5,1.7-1.7,1.6-2.8c0.1-1.2-0.7-2.2-1.8-2.6c-1.3-0.5-2.7-0.8-4.1-1.2c-1.4-0.4-2.8-0.9-4.1-1.5
	c-2.1-1-2.3-5.2,0.1-6.5c2.6-1.5,5.8-1.5,8.4-0.1C111.4,20.2,112.3,21.9,112.1,23.7L112.1,23.7z M37.9,35.5c-0.9,0.3-2,0-2.4-0.9
	l-4.4-6.1l-0.6-0.9l-5.1,6.9c-0.4,0.8-1.4,1.2-2.3,0.9l6.6-8.8l-6.1-8c0.9-0.3,1.9,0,2.4,0.9l4.6,6.2l4.6-6.1
	c0.4-0.8,1.4-1.2,2.3-0.9L35,21.9l-3.2,4.2c-0.4,0.3-0.4,0.9-0.1,1.2c0,0,0,0,0.1,0.1L37.9,35.5L37.9,35.5z M65.9,18.6v1.2
	c-3.4-0.2-6.3,2.4-6.6,5.8c0,0.2,0,0.4,0,0.6c0,2.8,0,5.6,0,8.4v1h-1.2V18.7h1.2v3.5C60.8,19.7,63,18.7,65.9,18.6L65.9,18.6z
	 M7.3,26.6l0.5-2.6c1.5-5.2,7.5-7.4,11.6-4.2c2.4,1.9,3,4.6,2.9,7.6H8.8c-0.2,5.4,3.7,8.7,8.7,7c1.6-0.6,2.9-2,3.3-3.7
	c0.3-0.9,0.7-1,1.5-0.8c-0.3,2.1-1.5,4-3.3,5c-3,1.7-6.8,1.2-9.3-1.2c-1.2-1.4-1.9-3.1-2.1-4.9c0-0.3-0.1-0.6-0.2-0.9
	C7.3,27.6,7.3,27.1,7.3,26.6L7.3,26.6z M8.8,26.2h12.3c-0.1-3.9-2.6-6.7-5.9-6.7C11.6,19.4,8.9,22.2,8.8,26.2L8.8,26.2z"/>
</svg>
