<?xml version="1.0" encoding="utf-8"?>
<!-- Generator: Adobe Illustrator 24.0.0, SVG Export Plug-In . SVG Version: 6.00 Build 0)  -->
<svg version="1.1" id="Layer_1" xmlns="http://www.w3.org/2000/svg" xmlns:xlink="http://www.w3.org/1999/xlink" x="0px" y="0px"
	 viewBox="0 0 120 60" style="enable-background:new 0 0 120 60;" xml:space="preserve">
<style type="text/css">
	.st0{fill:#FFFFFF;}
</style>
<path class="st0" d="M38.1,54.8V6.4h1.4V14c0.1-0.4,0.3-0.6,0.4-1.1c1.1-4.6,3.5-7.4,6.2-7.4c3.1-0.2,5.7,2.1,7.1,7.4
	c2,6.7,2.1,14.7,0.3,21.7c-1.4,5.9-4.8,9-8.5,7.8c-2.3-0.4-4.4-2.9-5.5-6.9v19.4L38.1,54.8z M39.5,23.4l0.3,5.7
	c0.5,6.5,2.5,10.3,5.7,10.9c3.1,1.1,6-2.3,7.1-7.8c1.2-5.5,1.1-11.8-0.2-17.3c-1.1-4.8-3.8-7.8-6.7-7.2c-2.6,0.4-4.8,3.8-5.5,8.6
	C39.9,18.8,39.6,21.1,39.5,23.4L39.5,23.4z M82.7,30c-0.4,7.2-3.5,12.4-7.2,12.6c-5.7,0.6-8.4-6.7-8.9-15.2
	c-0.3-4.6,0.1-9.3,1.1-13.5c1.4-5.9,4.7-9.3,8.1-8.4c3.2,0.4,5.9,4.8,6.6,10.9c0.3,2.7,0.5,5.3,0.7,8H68.1
	C67.8,32.1,70,38.4,73,39.9c3.8,1.7,7-1.3,8.2-8.2C81.5,29.8,81.9,29.5,82.7,30L82.7,30z M68.1,22h13.5c-0.1-8.2-2.7-14.1-6.4-14.1
	C71.2,7.7,68.2,13.3,68.1,22z M85.5,30.2h1.3c0.1,3.8,1.3,7.2,3.1,8.8c2.3,1.9,4.8,1.9,7.1-0.4c1.2-1.1,2-3.4,1.9-6.1
	c0.1-2.5-0.8-4.6-2-5.5c-1.4-1.1-3-1.7-4.5-2.5c-1.5-0.8-3.1-1.9-4.5-3.2c-2.4-2.3-2.5-10.9,0.2-13.7c2.8-2.9,6.2-3.2,9.1-0.2
	c1.8,1.9,2.7,5.7,2.4,9.5h-1.1l-0.1-0.2c-0.1-6.9-3.2-9-6.5-8.4c-1,0.2-2,0.8-2.8,1.7c-1.1,1.1-1.8,3.2-1.6,5.5
	c0,2.3,0.8,4.2,1.9,5.1c1.4,1.1,3,1.7,4.4,2.5l3.6,1.9c1.6,1.1,2.8,4,2.8,7.4c0.3,3.6-0.7,7.4-2.4,9c-3.1,3.4-8.2,2.5-10.5-1.7
	C86.2,36.3,85.5,33.3,85.5,30.2L85.5,30.2z M117,16.7h-1.2c0-0.4-0.1-0.6-0.1-0.8c0-3.6-1.4-6.7-3.3-7.6c-1.8-1.1-3.6-0.8-5.3,0.4
	c-1.3,0.8-2.3,3.2-2.3,5.9s0.9,5.1,2.2,5.7l5.7,2.7c0.7,0.2,1.2,0.6,1.9,1.1c1.9,1.3,3.1,4.4,3.1,8.2c0.1,3.8-1.1,7.2-2.8,8.4
	c-2.6,2.3-5.7,2.3-8.4,0.2c-2.2-1.9-3.6-6.1-3.5-10.9h1.2c0.4,4.2,2,7.8,4.1,9.5c2.1,1.7,4.4,1.3,6.4-1.1c1.2-1.1,1.9-3.6,1.8-5.9
	c0.1-2.5-0.8-4.6-2-5.5c-1.4-1.1-3-1.7-4.5-2.5c-1.5-0.8-3.1-1.9-4.5-3.2c-2.3-2.1-2.5-10.9,0.1-13.7c2.8-3.2,6.4-3.2,9.2-0.2
	C116.3,9.3,117.3,12.9,117,16.7L117,16.7z M35.8,41.5c-1,0.6-2.2,0-2.6-1.9l-4.8-12.8l-0.7-1.9l-5.6,14.5c-0.4,1.7-1.5,2.5-2.5,1.9
	l7.2-18.5L20.1,6c1-0.6,2.1,0,2.6,1.9l5,13l5-12.8c0.4-1.7,1.5-2.5,2.5-1.9l-2.7,6.7l-3.5,8.8c-0.4,0.6-0.4,1.9-0.1,2.5
	c0,0,0,0,0.1,0.2L35.8,41.5L35.8,41.5z M66.5,6v2.5c-3.7-0.4-6.9,5.1-7.2,12.2c0,0.4,0,0.8,0,1.3c0,5.9,0,11.8,0,17.7v2.1h-1.3V6.2
	h1.3v7.4C60.9,8.3,63.3,6.2,66.5,6L66.5,6z M2.3,22.8l0.5-5.5C4.5,6.4,11.1,1.8,15.5,8.5c2.6,4,3.3,9.7,3.2,16H3.9
	C3.7,35.9,8,42.8,13.5,39.2c1.8-1.3,3.2-4.2,3.6-7.8c0.3-1.9,0.8-2.1,1.6-1.7c-0.3,4.4-1.6,8.4-3.6,10.5c-3.3,3.6-7.4,2.5-10.2-2.5
	c-1.3-2.9-2.1-6.5-2.3-10.3c0-0.6-0.1-1.3-0.2-1.9C2.3,24.9,2.3,23.9,2.3,22.8L2.3,22.8z M3.9,22h13.5c-0.1-8.2-2.8-14.1-6.5-14.1
	C7,7.7,4.1,13.5,3.9,22L3.9,22z"/>
</svg>
