<svg xmlns="http://www.w3.org/2000/svg" xmlns:xlink="http://www.w3.org/1999/xlink" width="113" height="113" viewBox="0 0 113 113">
  <defs>
    <filter id="Polygon_1" x="0" y="0" width="113" height="113" filterUnits="userSpaceOnUse">
      <feOffset dx="3" dy="5" input="SourceAlpha"/>
      <feGaussianBlur stdDeviation="3" result="blur"/>
      <feFlood flood-color="#29f709" flood-opacity="0.161"/>
      <feComposite operator="in" in2="blur"/>
      <feComposite in="SourceGraphic"/>
    </filter>
  </defs>
  <g transform="matrix(1, 0, 0, 1, 0, 0)" filter="url(#Polygon_1)">
    <g id="Polygon_1-2" data-name="Polygon 1" transform="translate(6 4)" fill="#b3aeae">
      <path d="M 65.79201507568359 92.5 L 29.20800018310547 92.49998474121094 C 26.51824378967285 92.49998474121094 23.95238494873047 91.65604400634766 21.78781509399414 90.05935668945313 C 19.62322807312012 88.46268463134766 18.0593433380127 86.2603759765625 17.26521492004395 83.69052886962891 L 5.477700233459473 45.54536056518555 C 4.718828678131104 43.08960342407227 4.731342792510986 40.49747467041016 5.513885498046875 38.04916000366211 C 6.296442985534668 35.60086059570313 7.789685726165771 33.48200225830078 9.83221435546875 31.92164421081543 L 39.91172790527344 8.942958831787109 C 42.10985565185547 7.263715744018555 44.73384475708008 6.376130104064941 47.5 6.376130104064941 C 50.26615524291992 6.376130104064941 52.89014434814453 7.263715744018555 55.08827209472656 8.942944526672363 L 85.16778564453125 31.92165946960449 C 87.21029663085938 33.48200225830078 88.70355987548828 35.60086059570313 89.48609924316406 38.04916000366211 C 90.26864624023438 40.49747467041016 90.28117370605469 43.08961486816406 89.52230072021484 45.54536056518555 L 77.73478698730469 83.69052886962891 C 76.94065856933594 86.2603759765625 75.37677001953125 88.46268463134766 73.21219635009766 90.05937194824219 C 71.04761505126953 91.65604400634766 68.48175811767578 92.5 65.79201507568359 92.5 Z" stroke="none"/>
      <path d="M 47.5 8.876136779785156 C 45.28706741333008 8.876136779785156 43.18788146972656 9.586204528808594 41.42938232421875 10.92958831787109 L 11.34986877441406 33.90828323364258 C 9.715850830078125 35.15656661987305 8.521247863769531 36.85165023803711 7.895217895507813 38.810302734375 C 7.269180297851563 40.76893615722656 7.259162902832031 42.8426513671875 7.866264343261719 44.8072509765625 L 19.65377044677734 82.95240020751953 C 20.28907012939453 85.00828552246094 21.54018402099609 86.77013397216797 23.27183532714844 88.0474853515625 C 25.00350189208984 89.32482147216797 27.05618286132813 89.99998474121094 29.20798492431641 89.99998474121094 L 65.79199981689453 90 C 67.94380187988281 90 69.99648284912109 89.32483673095703 71.7281494140625 88.0474853515625 C 73.45981597900391 86.77014923095703 74.71091461181641 85.00830078125 75.34621429443359 82.95240020751953 L 87.13373565673828 44.80727005004883 C 87.74082946777344 42.8426513671875 87.73081970214844 40.76893615722656 87.10478210449219 38.810302734375 C 86.47875213623047 36.85165023803711 85.28414916992188 35.15656661987305 83.65011596679688 33.90828323364258 L 53.57061767578125 10.92958831787109 C 51.81211853027344 9.586204528808594 49.71293258666992 8.876136779785156 47.5 8.876136779785156 M 47.49999237060547 3.876129150390625 C 50.70895385742188 3.876129150390625 53.91791534423828 4.902862548828125 56.60593414306641 6.956321716308594 L 86.68543243408203 29.93502044677734 C 91.68087005615234 33.75118255615234 93.76681518554688 40.27740097045898 91.91085052490234 46.28347015380859 L 80.12333679199219 84.42861938476563 C 78.18113708496094 90.71375274658203 72.37036895751953 95 65.79199981689453 95 L 29.20798492431641 94.99998474121094 C 22.62961578369141 95 16.81886291503906 90.71373748779297 14.87664794921875 84.42861938476563 L 3.089149475097656 46.28347015380859 C 1.233184814453125 40.27740097045898 3.319129943847656 33.75118255615234 8.314552307128906 29.93502044677734 L 38.39406585693359 6.956321716308594 C 41.08207321166992 4.902862548828125 44.29103469848633 3.876129150390625 47.49999237060547 3.876129150390625 Z" stroke="none" fill="#29f709"/>
    </g>
  </g>
</svg>
