<svg xmlns="http://www.w3.org/2000/svg" xmlns:xlink="http://www.w3.org/1999/xlink" width="201.848" height="201.848" viewBox="0 0 201.848 201.848">
  <defs>
    <filter id="Polygon_1" x="0" y="0" width="201.848" height="201.848" filterUnits="userSpaceOnUse">
      <feOffset dx="3" dy="5" input="SourceAlpha"/>
      <feGaussianBlur stdDeviation="3" result="blur"/>
      <feFlood flood-color="#b3aeae" flood-opacity="0.412"/>
      <feComposite operator="in" in2="blur"/>
      <feComposite in="SourceGraphic"/>
    </filter>
  </defs>
  <g transform="matrix(1, 0, 0, 1, 0, 0)" filter="url(#Polygon_1)">
    <g id="Polygon_1-2" data-name="Polygon 1" transform="translate(97.92 4) rotate(45)" fill="#29f709">
      <path d="M 64.99999237060547 121.2867965698242 C 61.6611213684082 121.2867965698242 58.52210235595703 119.9865646362305 56.16115570068359 117.6256332397461 L 12.37437438964844 73.83883666992188 C 10.01342868804932 71.47789001464844 8.713210105895996 68.33885192871094 8.713210105895996 65 C 8.713210105895996 61.66112899780273 10.01342868804932 58.52210998535156 12.37437438964844 56.16116333007813 L 56.16115570068359 12.37436389923096 C 58.52210235595703 10.01343631744385 61.6611213684082 8.713217735290527 64.99999237060547 8.713217735290527 C 68.3388671875 8.713217735290527 71.47788238525391 10.01343631744385 73.83882904052734 12.37436389923096 L 117.6256484985352 56.16116333007813 C 119.986572265625 58.52209091186523 121.2867889404297 61.66112899780273 121.2867889404297 65 C 121.2867889404297 68.33887481689453 119.986572265625 71.47789001464844 117.6256484985352 73.83883666992188 L 73.83882904052734 117.6256332397461 C 71.47788238525391 119.9865646362305 68.3388671875 121.2867965698242 64.99999237060547 121.2867965698242 Z" stroke="none"/>
      <path d="M 64.99999237060547 11.21320343017578 C 62.32889556884766 11.21320343017578 59.81767272949219 12.25337982177734 57.92893218994141 14.14214324951172 L 14.14213562011719 57.92890167236328 C 10.24313354492188 61.82791900634766 10.24313354492188 68.17205810546875 14.14213562011719 72.07106018066406 L 57.92893218994141 115.8578567504883 C 59.81767272949219 117.7466201782227 62.32889556884766 118.7868041992188 64.99999237060547 118.7868041992188 C 67.67107391357422 118.7868041992188 70.18229675292969 117.7466201782227 72.07105255126953 115.8578567504883 L 115.8578491210938 72.07106018066406 C 117.7466125488281 70.18231964111328 118.7867889404297 67.67109680175781 118.7867889404297 65 C 118.7867889404297 62.32890319824219 117.7466125488281 59.81768035888672 115.8578491210938 57.92893981933594 L 72.07105255126953 14.14214324951172 C 70.18231201171875 12.25337982177734 67.67109680175781 11.21320343017578 64.99999237060547 11.21320343017578 M 64.99999237060547 6.213203430175781 C 68.83882904052734 6.213203430175781 72.67765808105469 7.67767333984375 75.60659790039063 10.60659790039063 L 119.3933944702148 54.39340209960938 C 125.2512512207031 60.25125885009766 125.2512512207031 69.74874114990234 119.3933944702148 75.60659790039063 L 75.60659790039063 119.3934020996094 C 72.67765808105469 122.3223266601563 68.83882904052734 123.7867965698242 64.99999237060547 123.7867965698242 C 61.16115570068359 123.7867965698242 57.32231903076172 122.3223266601563 54.39339447021484 119.3934020996094 L 10.60659027099609 75.60659790039063 C 4.748733520507813 69.74874114990234 4.748733520507813 60.25125885009766 10.60659027099609 54.39337921142578 L 54.39339447021484 10.60659790039063 C 57.32231903076172 7.67767333984375 61.16115570068359 6.213203430175781 64.99999237060547 6.213203430175781 Z" stroke="none" fill="#b3aeae"/>
    </g>
  </g>
</svg>
